<svg width="1264" height="1078.7" version="1.1" viewBox="0 0 1264 1078.7" xmlns="http://www.w3.org/2000/svg">
 <defs>
  <clipPath id="ag">
   <path transform="matrix(.20776 0 0 .20779 -31.19 -229.68)" d="m0 0h3946.9v3368.8h-3946.9z" clip-rule="evenodd"/>
  </clipPath>
  <clipPath id="r">
   <path transform="matrix(.20776 0 0 .20779 -281.19 -169.68)" d="m0 0h3946.9v3368.8h-3946.9z" clip-rule="evenodd"/>
  </clipPath>
  <clipPath id="f">
   <path transform="matrix(.20776 0 0 .20779 -71.19 -199.68)" d="m970.95 951.36h154.02v57.751h-154.02m-637.92-57.751h6088.8v5198.4h-6088.8" clip-rule="evenodd"/>
  </clipPath>
  <clipPath id="cx">
   <path transform="scale(.32)" d="m0 0h3946.9v3368.8h-3946.9z"/>
  </clipPath>
  <clipPath id="cr">
   <path transform="scale(.32)" d="m0 0h3950v3370.8h-3950z"/>
  </clipPath>
  <clipPath id="ca">
   <path transform="scale(.32)" d="m0 0h3946.9v3368.8h-3946.9z" clip-rule="evenodd"/>
  </clipPath>
  <clipPath id="bs">
   <path transform="scale(.32)" d="m0 0h3946.9v3368.8h-3946.9z" clip-rule="evenodd"/>
  </clipPath>
  <clipPath id="bg">
   <path transform="matrix(0 -.20776 .20779 0 -229.68 71.19)" d="m0 0h3946.9v3368.8h-3946.9z" clip-rule="evenodd"/>
  </clipPath>
  <clipPath id="ba">
   <path transform="matrix(.20776 0 0 .20779 -401.19 -199.68)" d="m2303 951.36h173.28v57.751h-173.28m-381.58-57.751h6088.8v5198.4h-6088.8" clip-rule="evenodd"/>
  </clipPath>
  <clipPath id="au">
   <path transform="scale(.32)" d="m0 0h3946.9v3368.8h-3946.9z"/>
  </clipPath>
  <clipPath id="ap">
   <path transform="scale(.32)" d="m0 0h3950v3370.8h-3950z"/>
  </clipPath>
  <clipPath id="ao">
   <path transform="scale(.32)" d="m0 0h3946.9v3368.8h-3946.9z" clip-rule="evenodd"/>
  </clipPath>
  <clipPath id="an">
   <path transform="scale(.32)" d="m0 0h3946.9v3368.8h-3946.9z" clip-rule="evenodd"/>
  </clipPath>
  <clipPath id="am">
   <path transform="matrix(0 -.20776 .20779 0 -249.68 751.19)" d="m0 0h3946.9v3368.8h-3946.9z" clip-rule="evenodd"/>
  </clipPath>
  <clipPath id="al">
   <path transform="matrix(.20776 0 0 .20779 -261.19 -89.681)" d="m0 0h3946.9v3368.8h-3946.9z" clip-rule="evenodd"/>
  </clipPath>
  <clipPath id="ak">
   <path transform="matrix(.20776 0 0 .20779 -341.19 -149.68)" d="m0 0h3946.9v3368.8h-3946.9z" clip-rule="evenodd"/>
  </clipPath>
  <clipPath id="aj">
   <path transform="matrix(0 -.20776 .20779 0 -169.68 341.19)" d="m0 0h3946.9v3368.8h-3946.9z" clip-rule="evenodd"/>
  </clipPath>
  <clipPath id="ai">
   <path transform="matrix(.20776 0 0 .20779 -281.19 -9.6803)" d="m0 0h3946.9v3368.8h-3946.9z" clip-rule="evenodd"/>
  </clipPath>
  <clipPath id="ah">
   <path transform="matrix(.20776 0 0 .20779 -341.19 -69.677)" d="m0 0h3946.9v3368.8h-3946.9z" clip-rule="evenodd"/>
  </clipPath>
  <clipPath id="af">
   <path transform="matrix(0 -.20776 .20779 0 -89.677 341.19)" d="m0 0h3946.9v3368.8h-3946.9z" clip-rule="evenodd"/>
  </clipPath>
  <clipPath id="ae">
   <path transform="matrix(.20776 0 0 .20779 -691.19 -249.68)" d="m0 0h3946.9v3368.8h-3946.9z" clip-rule="evenodd"/>
  </clipPath>
  <clipPath id="ad">
   <path transform="matrix(.20776 0 0 .20779 -11.187 -309.68)" d="m0 0h3946.9v3368.8h-3946.9z" clip-rule="evenodd"/>
  </clipPath>
  <clipPath id="ac">
   <path transform="matrix(.20776 0 0 .20779 -71.19 -289.68)" d="m0 0h3946.9v3368.8h-3946.9z" clip-rule="evenodd"/>
  </clipPath>
  <clipPath id="ab">
   <path transform="matrix(0 -.20776 .20779 0 -309.68 71.19)" d="m0 0h3946.9v3368.8h-3946.9z" clip-rule="evenodd"/>
  </clipPath>
  <clipPath id="aa">
   <path transform="matrix(.20776 0 0 .20779 -151.19 -369.68)" d="m0 0h3946.9v3368.8h-3946.9z" clip-rule="evenodd"/>
  </clipPath>
  <clipPath id="z">
   <path transform="matrix(.20776 0 0 .20779 -131.19 -339.68)" d="m703.18 1625.1h173.28v57.751h-173.28m-81.368-57.751h6088.8v5198.4h-6088.8" clip-rule="evenodd"/>
  </clipPath>
  <clipPath id="y">
   <path transform="scale(.32)" d="m0 0h3946.9v3368.8h-3946.9z"/>
  </clipPath>
  <clipPath id="x">
   <path transform="scale(.32)" d="m0 0h3950v3370.8h-3950z"/>
  </clipPath>
  <clipPath id="w">
   <path transform="scale(.32)" d="m0 0h3946.9v3368.8h-3946.9z" clip-rule="evenodd"/>
  </clipPath>
  <clipPath id="v">
   <path transform="scale(.32)" d="m0 0h3946.9v3368.8h-3946.9z" clip-rule="evenodd"/>
  </clipPath>
  <clipPath id="u">
   <path transform="matrix(0 -.20776 .20779 0 -369.68 211.19)" d="m0 0h3946.9v3368.8h-3946.9z" clip-rule="evenodd"/>
  </clipPath>
  <clipPath id="t">
   <path transform="matrix(.20776 0 0 .20779 -11.187 -469.68)" d="m0 0h3946.9v3368.8h-3946.9z" clip-rule="evenodd"/>
  </clipPath>
  <clipPath id="s">
   <path transform="matrix(.20776 0 0 .20779 -71.19 -369.68)" d="m333.03 1927.7h81.825v105.88h-81.825m0-264.1h6088.8v5198.4h-6088.8" clip-rule="evenodd"/>
  </clipPath>
  <clipPath id="q">
   <path transform="scale(.32)" d="m0 0h3946.9v3368.8h-3946.9z"/>
  </clipPath>
  <clipPath id="p">
   <path transform="scale(.32)" d="m0 0h3950v3370.8h-3950z"/>
  </clipPath>
  <clipPath id="o">
   <path transform="scale(.32)" d="m0 0h3946.9v3368.8h-3946.9z" clip-rule="evenodd"/>
  </clipPath>
  <clipPath id="n">
   <path transform="scale(.32)" d="m0 0h3946.9v3368.8h-3946.9z" clip-rule="evenodd"/>
  </clipPath>
  <clipPath id="m">
   <path transform="matrix(0 -.20776 .20779 0 -469.68 71.19)" d="m0 0h3946.9v3368.8h-3946.9z" clip-rule="evenodd"/>
  </clipPath>
  <clipPath id="l">
   <path transform="matrix(.20776 0 0 .20779 -151.19 -469.68)" d="m0 0h3946.9v3368.8h-3946.9z" clip-rule="evenodd"/>
  </clipPath>
  <clipPath id="k">
   <path transform="matrix(.20776 0 0 .20779 -211.19 -429.68)" d="m1006.9 2098.3h81.826v105.88h-81.826m0-145.96h6088.8v5198.4h-6088.8" clip-rule="evenodd"/>
  </clipPath>
  <clipPath id="j">
   <path transform="scale(.32)" d="m0 0h3946.9v3368.8h-3946.9z"/>
  </clipPath>
  <clipPath id="i">
   <path transform="scale(.32)" d="m0 0h3950v3370.8h-3950z"/>
  </clipPath>
  <clipPath id="h">
   <path transform="scale(.32)" d="m0 0h3946.9v3368.8h-3946.9z" clip-rule="evenodd"/>
  </clipPath>
  <clipPath id="g">
   <path transform="scale(.32)" d="m0 0h3946.9v3368.8h-3946.9z" clip-rule="evenodd"/>
  </clipPath>
  <clipPath id="e">
   <path transform="matrix(0 -.20776 .20779 0 -469.68 211.19)" d="m0 0h3946.9v3368.8h-3946.9z" clip-rule="evenodd"/>
  </clipPath>
  <clipPath id="d">
   <path transform="matrix(.20776 0 0 .20779 -251.19 -549.68)" d="m0 0h3946.9v3368.8h-3946.9z" clip-rule="evenodd"/>
  </clipPath>
  <clipPath id="c">
   <path transform="matrix(.20776 0 0 .20779 -551.19 -309.68)" d="m0 0h3946.9v3368.8h-3946.9z" clip-rule="evenodd"/>
  </clipPath>
  <clipPath id="b">
   <path transform="matrix(.20776 0 0 .20779 -611.19 -279.68)" d="m3072.8 1336.4h154.02v57.751h-154.02m-140.63-57.751h6088.8v5198.4h-6088.8" clip-rule="evenodd"/>
  </clipPath>
  <clipPath id="a">
   <path transform="scale(.32)" d="m0 0h3946.9v3368.8h-3946.9z"/>
  </clipPath>
  <clipPath id="cw">
   <path transform="scale(.32)" d="m0 0h3950v3370.8h-3950z"/>
  </clipPath>
  <clipPath id="cv">
   <path transform="scale(.32)" d="m0 0h3946.9v3368.8h-3946.9z" clip-rule="evenodd"/>
  </clipPath>
  <clipPath id="cu">
   <path transform="scale(.32)" d="m0 0h3946.9v3368.8h-3946.9z" clip-rule="evenodd"/>
  </clipPath>
  <clipPath id="ct">
   <path transform="matrix(0 -.20776 .20779 0 -309.68 611.19)" d="m0 0h3946.9v3368.8h-3946.9z" clip-rule="evenodd"/>
  </clipPath>
  <clipPath id="cs">
   <path transform="matrix(.20776 0 0 .20779 -411.19 -369.68)" d="m0 0h3946.9v3368.8h-3946.9z" clip-rule="evenodd"/>
  </clipPath>
  <clipPath id="cq">
   <path transform="matrix(.20776 0 0 .20779 -471.19 -339.68)" d="m2368 1625.1h173.28v57.751h-173.28m-109.67-57.751h6088.8v5198.4h-6088.8" clip-rule="evenodd"/>
  </clipPath>
  <clipPath id="cp">
   <path transform="scale(.32)" d="m0 0h3946.9v3368.8h-3946.9z"/>
  </clipPath>
  <clipPath id="co">
   <path transform="scale(.32)" d="m0 0h3950v3370.8h-3950z"/>
  </clipPath>
  <clipPath id="cn">
   <path transform="scale(.32)" d="m0 0h3946.9v3368.8h-3946.9z" clip-rule="evenodd"/>
  </clipPath>
  <clipPath id="cm">
   <path transform="scale(.32)" d="m0 0h3946.9v3368.8h-3946.9z" clip-rule="evenodd"/>
  </clipPath>
  <clipPath id="cl">
   <path transform="matrix(0 -.20776 .20779 0 -369.68 471.19)" d="m0 0h3946.9v3368.8h-3946.9z" clip-rule="evenodd"/>
  </clipPath>
  <clipPath id="ck">
   <path transform="matrix(.20776 0 0 .20779 -281.19 -629.68)" d="m0 0h3946.9v3368.8h-3946.9z" clip-rule="evenodd"/>
  </clipPath>
  <clipPath id="cj">
   <path transform="matrix(.20776 0 0 .20779 -341.19 -609.68)" d="m0 0h3946.9v3368.8h-3946.9z" clip-rule="evenodd"/>
  </clipPath>
  <clipPath id="ci">
   <path transform="matrix(0 -.20776 .20779 0 -629.68 341.19)" d="m0 0h3946.9v3368.8h-3946.9z" clip-rule="evenodd"/>
  </clipPath>
  <clipPath id="ch">
   <path transform="matrix(.20776 0 0 .20779 -551.19 -469.68)" d="m0 0h3946.9v3368.8h-3946.9z" clip-rule="evenodd"/>
  </clipPath>
  <clipPath id="cg">
   <path transform="matrix(.20776 0 0 .20779 -411.19 -469.68)" d="m0 0h3946.9v3368.8h-3946.9z" clip-rule="evenodd"/>
  </clipPath>
  <clipPath id="cf">
   <path transform="matrix(.20776 0 0 .20779 -471.19 -429.68)" d="m2258.3 2061.8h81.825v105.88h-81.825m0-109.47h6088.8v5198.4h-6088.8" clip-rule="evenodd"/>
  </clipPath>
  <clipPath id="ce">
   <path transform="scale(.32)" d="m0 0h3946.9v3368.8h-3946.9z"/>
  </clipPath>
  <clipPath id="cd">
   <path transform="scale(.32)" d="m0 0h3950v3370.8h-3950z"/>
  </clipPath>
  <clipPath id="cc">
   <path transform="scale(.32)" d="m0 0h3946.9v3368.8h-3946.9z" clip-rule="evenodd"/>
  </clipPath>
  <clipPath id="cb">
   <path transform="scale(.32)" d="m0 0h3946.9v3368.8h-3946.9z" clip-rule="evenodd"/>
  </clipPath>
  <clipPath id="bz">
   <path transform="matrix(0 -.20776 .20779 0 -469.68 471.19)" d="m0 0h3946.9v3368.8h-3946.9z" clip-rule="evenodd"/>
  </clipPath>
  <clipPath id="by">
   <path transform="matrix(.20776 0 0 .20779 -611.19 -369.68)" d="m2932.2 1787.5h81.826v105.88h-81.826m0-123.87h6088.8v5198.4h-6088.8" clip-rule="evenodd"/>
  </clipPath>
  <clipPath id="bx">
   <path transform="scale(.32)" d="m0 0h3946.9v3368.8h-3946.9z"/>
  </clipPath>
  <clipPath id="bw">
   <path transform="scale(.32)" d="m0 0h3950v3370.8h-3950z"/>
  </clipPath>
  <clipPath id="bv">
   <path transform="scale(.32)" d="m0 0h3946.9v3368.8h-3946.9z" clip-rule="evenodd"/>
  </clipPath>
  <clipPath id="bu">
   <path transform="scale(.32)" d="m0 0h3946.9v3368.8h-3946.9z" clip-rule="evenodd"/>
  </clipPath>
  <clipPath id="bt">
   <path transform="matrix(0 -.20776 .20779 0 -469.68 611.19)" d="m0 0h3946.9v3368.8h-3946.9z" clip-rule="evenodd"/>
  </clipPath>
  <clipPath id="br">
   <path transform="matrix(.20776 0 0 .20779 -691.19 -469.68)" d="m0 0h3946.9v3368.8h-3946.9z" clip-rule="evenodd"/>
  </clipPath>
  <clipPath id="bq">
   <path transform="matrix(.20776 0 0 .20779 -751.19 -309.68)" d="m3606.1 1513.6h91.452v105.88h-91.452m0-138.73h6088.8v5198.4h-6088.8" clip-rule="evenodd"/>
  </clipPath>
  <clipPath id="bp">
   <path transform="scale(.32)" d="m0 0h3946.9v3368.8h-3946.9z"/>
  </clipPath>
  <clipPath id="bo">
   <path transform="scale(.32)" d="m0 0h3950v3370.8h-3950z"/>
  </clipPath>
  <clipPath id="bn">
   <path transform="scale(.32)" d="m0 0h3946.9v3368.8h-3946.9z" clip-rule="evenodd"/>
  </clipPath>
  <clipPath id="bm">
   <path transform="scale(.32)" d="m0 0h3946.9v3368.8h-3946.9z" clip-rule="evenodd"/>
  </clipPath>
  <clipPath id="bl">
   <path transform="matrix(0 -.20776 .20779 0 -469.68 751.19)" d="m0 0h3946.9v3368.8h-3946.9z" clip-rule="evenodd"/>
  </clipPath>
  <clipPath id="bk">
   <path transform="matrix(.20776 0 0 .20779 -271.19 -399.68)" d="m1343.9 1913.9h173.28v57.751h-173.28m-48.166-57.751h6088.8v5198.4h-6088.8" clip-rule="evenodd"/>
  </clipPath>
  <clipPath id="bj">
   <path transform="scale(.32)" d="m0 0h3946.9v3368.8h-3946.9z"/>
  </clipPath>
  <clipPath id="bi">
   <path transform="scale(.32)" d="m0 0h3950v3370.8h-3950z"/>
  </clipPath>
  <clipPath id="bh">
   <path transform="scale(.32)" d="m0 0h3946.9v3368.8h-3946.9z" clip-rule="evenodd"/>
  </clipPath>
  <clipPath id="bf">
   <path transform="scale(.32)" d="m0 0h3946.9v3368.8h-3946.9z" clip-rule="evenodd"/>
  </clipPath>
  <clipPath id="be">
   <path transform="matrix(0 -.20776 .20779 0 -549.68 341.19)" d="m0 0h3946.9v3368.8h-3946.9z" clip-rule="evenodd"/>
  </clipPath>
  <clipPath id="bd">
   <path transform="matrix(.20776 0 0 .20779 -211.19 -529.68)" d="m0 0h3946.9v3368.8h-3946.9z" clip-rule="evenodd"/>
  </clipPath>
  <clipPath id="bc">
   <path transform="matrix(.20776 0 0 .20779 -258.69 -579.68)" d="m0 0h3946.9v3368.8h-3946.9z" clip-rule="evenodd"/>
  </clipPath>
  <clipPath id="bb">
   <path transform="matrix(.20776 0 0 .20779 -71.19 -529.68)" d="m0 0h3946.9v3368.8h-3946.9z" clip-rule="evenodd"/>
  </clipPath>
  <clipPath id="az">
   <path transform="matrix(.20776 0 0 .20779 -258.69 -579.68)" d="m0 0h3946.9v3368.8h-3946.9z" clip-rule="evenodd"/>
  </clipPath>
  <clipPath id="ay">
   <path transform="matrix(.20776 0 0 .20779 -423.69 -529.68)" d="m0 0h3946.9v3368.8h-3946.9z" clip-rule="evenodd"/>
  </clipPath>
  <clipPath id="ax">
   <path transform="matrix(-.20776 0 0 -.20779 423.69 579.68)" d="m0 0h3946.9v3368.8h-3946.9z" clip-rule="evenodd"/>
  </clipPath>
  <clipPath id="aw">
   <path transform="matrix(.20776 0 0 .20779 -423.69 -529.68)" d="m0 0h3946.9v3368.8h-3946.9z" clip-rule="evenodd"/>
  </clipPath>
  <clipPath id="av">
   <path transform="matrix(-.20776 0 0 -.20779 423.69 579.68)" d="m0 0h3946.9v3368.8h-3946.9z" clip-rule="evenodd"/>
  </clipPath>
  <clipPath id="at">
   <path transform="matrix(.20776 0 0 .20779 -341.19 -399.68)" d="m0 0h3946.9v3368.8h-3946.9z" clip-rule="evenodd"/>
  </clipPath>
  <clipPath id="as">
   <path transform="matrix(0 -.20776 .20779 0 -549.68 341.19)" d="m0 0h3946.9v3368.8h-3946.9z" clip-rule="evenodd"/>
  </clipPath>
  <clipPath id="ar">
   <path transform="matrix(.20776 0 0 .20779 -423.69 -529.68)" d="m0 0h3946.9v3368.8h-3946.9z" clip-rule="evenodd"/>
  </clipPath>
  <clipPath id="aq">
   <path transform="matrix(-.20776 0 0 -.20779 423.69 579.68)" d="m0 0h3946.9v3368.8h-3946.9z" clip-rule="evenodd"/>
  </clipPath>
 </defs>
 <path transform="matrix(1.5402 0 0 1.54 48.04 353.71)" d="m8 0h64c0.52528 0 1.0455 0.051239 1.5607 0.15372 0.51519 0.10248 1.0154 0.25423 1.5007 0.45525 0.4853 0.20102 0.94634 0.44745 1.3831 0.73928s0.84086 0.62347 1.2123 0.9949c0.37143 0.37143 0.70306 0.77553 0.99489 1.2123 0.29184 0.43676 0.53827 0.89779 0.73929 1.3831 0.20102 0.4853 0.35277 0.98555 0.45525 1.5007 0.10248 0.51519 0.15372 1.0354 0.15372 1.5607v44c-8e-6 0.52529-0.05125 1.0455-0.15372 1.5607-0.10248 0.51519-0.25423 1.0154-0.45525 1.5007-0.20102 0.4853-0.44745 0.94633-0.73928 1.3831-0.29183 0.43676-0.62347 0.84086-0.9949 1.2123-0.37144 0.37143-0.77554 0.70307-1.2123 0.9949-0.43676 0.29183-0.8978 0.53825-1.3831 0.73928-0.4853 0.20102-0.98555 0.35277-1.5007 0.45525-0.5152 0.10248-1.0354 0.15372-1.5607 0.15372h-64c-0.52529-4e-6 -1.0455-0.051247-1.5607-0.15373-0.51519-0.10248-1.0154-0.25422-1.5007-0.45524-0.4853-0.20102-0.94633-0.44745-1.3831-0.73928-0.43676-0.29184-0.84086-0.62347-1.2123-0.9949-0.37143-0.37143-0.70307-0.77553-0.9949-1.2123-0.29183-0.43676-0.53826-0.8978-0.73928-1.3831s-0.35277-0.98555-0.45525-1.5007c-0.10248-0.51519-0.15372-1.0354-0.15372-1.5607v-44c0-0.52529 0.051239-1.0455 0.15372-1.5607 0.10248-0.51519 0.25423-1.0154 0.45525-1.5007 0.20102-0.4853 0.44745-0.94633 0.73928-1.3831 0.29183-0.43676 0.62347-0.84086 0.9949-1.2123 0.37143-0.37143 0.77553-0.70307 1.2123-0.9949 0.43676-0.29183 0.89779-0.53826 1.3831-0.73928 0.4853-0.20102 0.98555-0.35277 1.5007-0.45525 0.51519-0.10248 1.0354-0.15372 1.5607-0.15372z" clip-path="url(#ag)" fill="#fff" stroke="#1a1a1a" stroke-miterlimit="10" stroke-width="2"/>
 <text transform="matrix(1.5463 0 0 1.54 86.69 406.07)" xml:space="preserve"><tspan x="0" y="0" fill="#1a1a1a" font-family="'Open Sans'" font-size="14px" font-style="italic" font-weight="700">z</tspan></text>
 <path transform="matrix(1.5471 0 0 1.54 96.558 406.07)" d="m4.4546-5.8638v-0.93343h6.3528v0.93343zm0 2.7901v-0.93343h6.3528v0.93343zm18.551 0.78124h-1.4847v2.293h-1.0908v-2.293h-4.858v-0.9943l4.7469-6.7674h1.2019v6.7268h1.4847zm-2.5754-1.0349v-3.3279c0-0.64934 0.02273-1.3824 0.0707-2.2017h-0.0505c-0.2222 0.43374-0.42924 0.79646-0.61609 1.0856l-3.1309 4.4439z" fill="#1a1a1a" aria-label=" = 4"/>
 <path transform="matrix(1.5402 0 0 1.54 433.1 261.31)" d="m30 15 26.422-13.211c1.1261-0.56306 2.3187-0.84458 3.5777-0.84458s2.4516 0.28153 3.5777 0.84458l42.111 21.056c0.66442 0.33221 1.2708 0.74888 1.8192 1.25s1.0178 1.0676 1.4083 1.6996c0.39054 0.6319 0.6873 1.3051 0.89029 2.0197 0.20301 0.71457 0.30451 1.4433 0.30451 2.1861 0 0.74285-0.1015 1.4716-0.30451 2.1861-0.20299 0.71457-0.49975 1.3878-0.89029 2.0197-0.39054 0.6319-0.85999 1.1984-1.4083 1.6995-0.54834 0.50113-1.1547 0.91781-1.8192 1.25l-42.111 21.056c-1.1261 0.56306-2.3187 0.84459-3.5777 0.84459s-2.4516-0.28153-3.5777-0.84459l-42.111-21.056c-0.66442-0.33221-1.2708-0.74889-1.8192-1.25-0.54835-0.50113-1.0178-1.0676-1.4083-1.6996-0.39054-0.6319-0.6873-1.3051-0.8903-2.0197-0.203-0.71457-0.30449-1.4433-0.30449-2.1861-1e-6 -0.74285 0.1015-1.4716 0.30449-2.1861 0.203-0.71458 0.49976-1.3878 0.8903-2.0197 0.39054-0.6319 0.85998-1.1984 1.4083-1.6996 0.54835-0.50113 1.1547-0.9178 1.8192-1.25z" clip-path="url(#r)" fill="#fff" stroke="#1a1a1a" stroke-miterlimit="10" stroke-width="2"/>
 <text transform="matrix(1.548 0 0 1.54 489.32 313.67)" xml:space="preserve"><tspan x="0" y="0" fill="#1a1a1a" font-family="'Open Sans'" font-size="14px" font-style="italic" font-weight="700">x</tspan></text>
 <g clip-path="url(#bs)">
  <path transform="matrix(1.5482 0 0 1.54 500.85 313.67)" d="m10.913-1.6544-6.5701-2.8815v-0.66963l6.5701-3.2771v1.0146l-5.3388 2.5365 5.3388 2.2423zm1.5466-4.2106v-0.93343h6.3481v0.93343zm0 2.7901v-0.93343h6.3481v0.93343zm14.629-3.0336c1.0546 0 1.8822 0.2638 2.4827 0.79139 0.60554 0.52252 0.90831 1.2353 0.90831 2.1408 0 1.0349-0.33052 1.8466-0.98905 2.435-0.66105 0.58339-1.5694 0.87255-2.7249 0.87255-1.1253 0-1.9831-0.17755-2.5735-0.53774v-1.0958c0.31539 0.21053 0.70899 0.37286 1.1808 0.48701 0.47686 0.11668 0.94868 0.17248 1.4129 0.17248 0.79982 0 1.423-0.1877 1.8671-0.56817 0.44406-0.37794 0.66609-0.92582 0.66609-1.6436 0-1.3925-0.85532-2.0901-2.5635-2.0901-0.43145 0-1.0092 0.068485-1.7359 0.20292l-0.58536-0.3754 0.37342-4.6773h4.9654v1.045h-3.9966l-0.25231 3.0032c0.5248-0.10653 1.0446-0.16234 1.5643-0.16234zm11.505 1.0958c0 1.7248-0.27249 3.0134-0.81748 3.8656-0.54499 0.85226-1.3776 1.2784-2.4928 1.2784-1.0774 0-1.8974-0.43628-2.4625-1.3088-0.56012-0.87255-0.83766-2.1509-0.83766-3.8352 0-1.7375 0.26745-3.0286 0.80739-3.8758 0.54499-0.84465 1.3751-1.2682 2.4928-1.2682 1.0824 0 1.9024 0.44135 2.4625 1.319 0.56517 0.88016 0.84776 2.156 0.84776 3.825zm-5.46 0c0 1.4559 0.16652 2.5137 0.50462 3.1757 0.34314 0.66456 0.89065 0.9943 1.645 0.9943 0.75188 0 1.2969-0.33482 1.635-1.0045 0.34314-0.67471 0.51471-1.7299 0.51471-3.1655 0-1.4331-0.17157-2.4858-0.51471-3.1554-0.33809-0.66963-0.88308-1.0045-1.635-1.0045-0.7544 0-1.3019 0.33228-1.645 0.9943-0.33809 0.65695-0.50462 1.7121-0.50462 3.1655z" fill="#1a1a1a" aria-label=" &lt;= 50"/>
  <g clip-path="url(#ca)">
   <g clip-path="url(#cr)">
    <g clip-path="url(#cx)">
     <path transform="matrix(1.5402 0 0 1.54 109.65 307.52)" d="m210 0h-202c-5.3333 0-8 2.6667-8 8v11.818" clip-path="url(#f)" fill="none" stroke="#333" stroke-miterlimit="10" stroke-width="2"/>
    </g>
   </g>
  </g>
 </g>
 <path transform="matrix(0 1.54 -1.5402 0 109.65 353.72)" d="m-12.727-7.5455 12.727 7.5455-12.727 7.5455z" clip-path="url(#bg)" fill="#333"/>
 <g clip-path="url(#an)">
  <text transform="matrix(1.5496 0 0 1.54 314.07 313.68)" xml:space="preserve"><tspan x="0" y="0" dx="0 -0.70003092" fill="#333333" font-family="'Noto Sans'" font-size="14px">True</tspan></text>
  <g clip-path="url(#ao)">
   <g clip-path="url(#ap)">
    <g clip-path="url(#au)">
     <path transform="matrix(1.5402 0 0 1.54 617.93 307.52)" d="m0 0h342c5.3333 0 8 2.6667 8 8v31.818" clip-path="url(#ba)" fill="none" stroke="#333" stroke-miterlimit="10" stroke-width="2"/>
    </g>
   </g>
  </g>
 </g>
 <path transform="matrix(0 1.54 -1.5402 0 1157 384.52)" d="m-12.727-7.5455 12.727 7.5455-12.727 7.5455z" clip-path="url(#am)" fill="#333"/>
 <text transform="matrix(1.5486 0 0 1.54 740.4 313.68)" xml:space="preserve"><tspan x="0" y="0" fill="#333333" font-family="'Noto Sans'" font-size="14px">False</tspan></text>
 <path transform="matrix(1.5402 0 0 1.54 402.3 138.11)" d="m80 0h69.754c0.30294-2.8198e-8 0.60491 0.017154 0.90592 0.051461 0.30099 0.034307 0.59909 0.085548 0.89429 0.15372 0.29518 0.068173 0.58554 0.15284 0.8711 0.254 0.28559 0.10116 0.56452 0.21817 0.8368 0.35102 0.27226 0.13285 0.53613 0.28069 0.79161 0.44352 0.25546 0.16283 0.5009 0.3396 0.73629 0.53031 0.23539 0.19071 0.45922 0.39414 0.67151 0.61028 0.2123 0.21614 0.41167 0.44361 0.59812 0.6824 0.18643 0.23879 0.35875 0.48737 0.51695 0.74574 0.15819 0.25837 0.30125 0.52486 0.42918 0.79948 0.12792 0.27462 0.23989 0.5556 0.3359 0.84294 0.096 0.28734 0.17544 0.57919 0.23829 0.87556 0.0629 0.29636 0.10871 0.59533 0.13759 0.89691 0.0289 0.30157 0.0406 0.60381 0.0351 0.90672-5e-3 0.30291-0.028 0.60453-0.0678 0.90487-0.0397 0.30034-0.0963 0.59746-0.16979 0.89137l-11 44c-0.10742 0.42973-0.24955 0.84766-0.4264 1.2538-0.17685 0.40612-0.38599 0.79486-0.62743 1.1662-0.24144 0.37138-0.51184 0.7203-0.81122 1.0468-0.29939 0.32646-0.62364 0.62599-0.97278 0.89859-0.34913 0.2726-0.71836 0.51453-1.1077 0.7258-0.38933 0.21127-0.79341 0.38898-1.2123 0.53312-0.41884 0.14414-0.84671 0.25275-1.2836 0.32582-0.43681 0.073075-0.87674 0.10961-1.3197 0.10961h-128.51c-0.30295-4e-6 -0.60493-0.01716-0.90594-0.05147-0.30101-0.034307-0.5991-0.085546-0.89429-0.15372-0.29518-0.068172-0.58556-0.15284-0.87113-0.254-0.28557-0.10116-0.56448-0.21817-0.83676-0.35101-0.27227-0.13285-0.53615-0.28069-0.79162-0.44352-0.25548-0.16283-0.50091-0.3396-0.73631-0.53031-0.2354-0.19071-0.45923-0.39414-0.67152-0.61028-0.21228-0.21614-0.41165-0.44361-0.59809-0.68239-0.18644-0.2388-0.35876-0.48737-0.51697-0.74574s-0.30126-0.52486-0.42919-0.79948c-0.12793-0.27462-0.23989-0.5556-0.33589-0.84294-0.096004-0.28734-0.17543-0.57919-0.23828-0.87555-0.062847-0.29637-0.10871-0.59534-0.13759-0.89692-0.028882-0.30157-0.040595-0.60381-0.03514-0.90672 0.00545-0.30291 0.028043-0.60453 0.067765-0.90487 0.039722-0.30034 0.096321-0.59746 0.1698-0.89136l11-44c0.10743-0.42973 0.24958-0.84765 0.42643-1.2538s0.38599-0.79486 0.62742-1.1662c0.24142-0.37138 0.51183-0.7203 0.81122-1.0468 0.29938-0.32646 0.62364-0.62599 0.97278-0.89859 0.34914-0.2726 0.71837-0.51453 1.1077-0.7258 0.38932-0.21127 0.79341-0.38897 1.2123-0.53312 0.41884-0.14415 0.84671-0.25275 1.2836-0.32583 0.43688-0.073074 0.8768-0.10961 1.3198-0.10961z" clip-path="url(#al)" fill="#fff" stroke="#1a1a1a" stroke-miterlimit="10" stroke-width="2"/>
 <path transform="matrix(1.5486 0 0 1.54 455.32 175.07)" d="m5.7702-5.2354h3.4002v4.8599c-0.53222 0.16994-1.0695 0.29423-1.6143 0.3754-0.54484 0.086241-1.1805 0.1319-1.9069 0.1319-1.5134 0-2.6914-0.44896-3.5313-1.3494-0.84248-0.89792-1.2612-2.1611-1.2612-3.7844 0-1.0349 0.20684-1.9404 0.62555-2.7191 0.41619-0.78378 1.014-1.3824 1.7959-1.7958 0.78698-0.41091 1.7051-0.6189 2.7544-0.6189 1.0695 0 2.0633 0.19785 2.9865 0.58847l-0.45403 1.0247c-0.90301-0.38555-1.7707-0.57832-2.6031-0.57832-1.2183 0-2.1693 0.36272-2.8553 1.0856-0.68104 0.72544-1.019 1.7299-1.019 3.0134 0 1.3545 0.32791 2.3792 0.98878 3.0742 0.65834 0.69754 1.6244 1.045 2.8957 1.045 0.69113 0 1.3722-0.081168 2.0381-0.2435v-3.0742h-2.2399zm8.7905 5.3672c-1.1098 0-1.9851-0.33482-2.6233-1.0045-0.64069-0.67471-0.95851-1.6132-0.95851-2.8104 0-1.2099 0.29512-2.1712 0.88788-2.8815 0.5978-0.71022 1.3974-1.0653 2.4013-1.0653 0.94085 0 1.685 0.31199 2.2298 0.93343 0.54484 0.61637 0.81725 1.428 0.81725 2.435v0.72036h-5.1558c0.02018 0.88016 0.2371 1.5498 0.65582 2.0089 0.42376 0.45403 1.019 0.67978 1.7858 0.67978 0.80716 0 1.6042-0.16741 2.3912-0.5073v1.0146c-0.39854 0.16994-0.7769 0.2917-1.1401 0.36525-0.35818 0.073558-0.78698 0.11161-1.2915 0.11161zm-0.30269-6.8079c-0.60537 0-1.0871 0.19785-1.4428 0.58847-0.35818 0.39316-0.57006 0.93343-0.63564 1.6234h3.9248c0-0.71529-0.16143-1.2632-0.4843-1.6436-0.31782-0.37794-0.77185-0.56817-1.3621-0.56817zm7.4108 5.8745c0.20179 0 0.39601-0.012682 0.58519-0.040584 0.18666-0.032974 0.33548-0.063412 0.44394-0.091314v0.86241c-0.12107 0.060876-0.30269 0.10653-0.54484 0.14204-0.24215 0.040584-0.45907 0.060876-0.64573 0.060876-1.4529 0-2.1793-0.76095-2.1793-2.2828v-4.4642h-1.0695v-0.53774l1.0695-0.47686 0.4843-1.6031h0.65582v1.735h2.1693v0.8827h-2.1693v4.4135c0 0.45403 0.10594 0.80153 0.32286 1.045 0.2144 0.23843 0.507 0.35511 0.87779 0.35511zm7.8017 0.80153-2.8453-7.4979h1.2208l1.6143 4.4439c0.36322 1.0425 0.5751 1.7197 0.63564 2.0292h0.06054c0.0454-0.2435 0.20179-0.74319 0.46412-1.5016 0.26737-0.75587 0.87022-2.4147 1.806-4.9715h1.2107l-2.8453 7.4979zm9.9811 0-0.22197-1.0653h-0.06054c-0.37079 0.46671-0.7441 0.78631-1.1199 0.95372-0.37079 0.16234-0.83239 0.2435-1.3823 0.2435-0.74663 0-1.3318-0.1877-1.7556-0.56817-0.41872-0.38555-0.62555-0.92836-0.62555-1.6335 0-1.5143 1.2107-2.3082 3.6322-2.3843l1.2713-0.040584v-0.46671c0-0.58086-0.12864-1.0095-0.3834-1.2885-0.25728-0.28409-0.66087-0.42613-1.2107-0.42613-0.62555 0-1.3318 0.19024-2.1188 0.56817l-0.35313-0.86241c0.36827-0.20292 0.77185-0.36018 1.2107-0.47686 0.44394-0.11414 0.88788-0.17248 1.3318-0.17248 0.88788 0 1.5462 0.20038 1.9776 0.59861 0.42881 0.40077 0.64573 1.0349 0.64573 1.9074v5.1136zm-2.5627-0.80153c0.70627 0 1.2612-0.19277 1.6648-0.57832 0.40358-0.38555 0.60537-0.92582 0.60537-1.6234v-0.67978l-1.1401 0.05073c-0.90301 0.027901-1.5513 0.16741-1.9473 0.41598-0.39854 0.25111-0.59528 0.63666-0.59528 1.1566 0 0.41345 0.1236 0.72797 0.37331 0.94358 0.24719 0.21053 0.59528 0.31452 1.0392 0.31452zm6.8785 0.80153h-1.1401v-10.633h1.1401zm3.4708-7.4979v4.8701c0 0.60876 0.13621 1.0653 0.41367 1.3697 0.28251 0.29931 0.71888 0.44642 1.3116 0.44642 0.77942 0 1.352-0.21307 1.7152-0.6392 0.36322-0.4312 0.54484-1.1313 0.54484-2.1002v-3.9468h1.1401v7.4979h-0.93833l-0.16143-1.0045h-0.07063c-0.22954 0.37286-0.5524 0.65695-0.9686 0.85226-0.41115 0.1877-0.87779 0.28409-1.4024 0.28409-0.91563 0-1.6017-0.2156-2.0583-0.64934-0.45151-0.4312-0.676-1.1211-0.676-2.0698v-4.9106zm10.69 7.6298c-1.1098 0-1.9851-0.33482-2.6233-1.0045-0.64069-0.67471-0.95851-1.6132-0.95851-2.8104 0-1.2099 0.29512-2.1712 0.88788-2.8815 0.59781-0.71022 1.3974-1.0653 2.4013-1.0653 0.94085 0 1.685 0.31199 2.2298 0.93343 0.54484 0.61637 0.81725 1.428 0.81725 2.435v0.72036h-5.1558c0.02018 0.88016 0.2371 1.5498 0.65582 2.0089 0.42376 0.45403 1.019 0.67978 1.7858 0.67978 0.80716 0 1.6042-0.16741 2.3912-0.5073v1.0146c-0.39854 0.16994-0.7769 0.2917-1.1401 0.36525-0.35818 0.073558-0.78698 0.11161-1.2915 0.11161zm-0.30269-6.8079c-0.60537 0-1.0871 0.19785-1.4428 0.58847-0.35818 0.39316-0.57006 0.93343-0.63564 1.6234h3.9248c0-0.71529-0.16143-1.2632-0.4843-1.6436-0.31782-0.37794-0.77185-0.56817-1.3621-0.56817zm9.8222 4.6367c0 0.69754-0.2598 1.2353-0.7769 1.6132-0.51961 0.37286-1.2486 0.55803-2.1894 0.55803-0.98878 0-1.7631-0.15473-2.3206-0.46671v-1.0552c0.35566 0.18263 0.73906 0.32974 1.1502 0.43628 0.41619 0.10146 0.81725 0.15219 1.2007 0.15219 0.59024 0 1.0443-0.09385 1.3621-0.28409 0.32287-0.1877 0.4843-0.47686 0.4843-0.86241 0-0.28916-0.12864-0.53774-0.3834-0.74066-0.24972-0.20799-0.74158-0.45657-1.4731-0.74066-0.70122-0.2638-1.1981-0.48954-1.4933-0.67978-0.29007-0.19531-0.50952-0.41598-0.65582-0.65949-0.14125-0.24858-0.21188-0.54281-0.21188-0.8827 0-0.61383 0.24719-1.0983 0.74663-1.4509 0.49691-0.35004 1.1754-0.52759 2.0381-0.52759 0.80716 0 1.5967 0.16741 2.371 0.49715l-0.40358 0.91314c-0.75419-0.30438-1.4378-0.45657-2.0482-0.45657-0.53979 0-0.9459 0.086241-1.2208 0.25365-0.2699 0.16994-0.40358 0.40077-0.40358 0.68993 0 0.20292 0.05045 0.3754 0.15134 0.51744 0.1009 0.14204 0.26485 0.27901 0.49439 0.40584 0.22701 0.12175 0.66591 0.30438 1.3116 0.54788 0.89292 0.32467 1.4958 0.65441 1.806 0.98416 0.30773 0.32467 0.46412 0.73812 0.46412 1.2378zm8.8637-4.5758h-1.9069v6.6152h-1.1401v-6.6152h-1.3318v-0.5073l1.3318-0.41598v-0.41598c0-1.839 0.80716-2.7597 2.4215-2.7597 0.39601 0 0.86013 0.08117 1.3924 0.2435l-0.2926 0.90299c-0.4389-0.14204-0.81221-0.21307-1.1199-0.21307-0.43133 0-0.75167 0.14712-0.95851 0.43628-0.20179 0.28409-0.30269 0.74066-0.30269 1.3697v0.47686h1.9069zm7.8295 2.8612c0 1.2251-0.31025 2.1788-0.92824 2.8612-0.61294 0.68485-1.4605 1.0247-2.5426 1.0247-0.66591 0-1.2612-0.15473-1.7858-0.46671-0.51961-0.31706-0.91815-0.76602-1.2007-1.3494-0.28251-0.58847-0.42376-1.2784-0.42376-2.0698 0-1.2226 0.30521-2.1738 0.91815-2.851 0.61042-0.68232 1.4579-1.0247 2.5426-1.0247 1.0493 0 1.8792 0.35004 2.4921 1.045 0.61798 0.69754 0.92824 1.6411 0.92824 2.8307zm-5.7006 0c0 0.96133 0.18666 1.6918 0.56501 2.1915 0.3834 0.50223 0.94842 0.7508 1.695 0.7508 0.73906 0 1.3016-0.24858 1.685-0.7508 0.38845-0.49969 0.58519-1.2302 0.58519-2.1915 0-0.95372-0.19675-1.6766-0.58519-2.1712-0.3834-0.49208-0.95346-0.74066-1.7051-0.74066-0.74158 0-1.299 0.2435-1.6749 0.73051-0.37836 0.48701-0.56501 1.215-0.56501 2.1814zm11.111-3.8758c0.33548 0 0.63564 0.027901 0.89797 0.081168l-0.16143 1.0552c-0.31025-0.065949-0.58267-0.10146-0.81725-0.10146-0.60537 0-1.125 0.24858-1.5538 0.74066-0.43133 0.48701-0.64573 1.1008-0.64573 1.8364v4.0178h-1.1401v-7.4979h0.93833l0.13116 1.39h0.05045c0.28251-0.48701 0.61798-0.86241 1.009-1.1262 0.38845-0.2638 0.81978-0.39569 1.2915-0.39569z" fill="#1a1a1a" aria-label="Get values for"/>
 <text transform="matrix(1.548 0 0 1.54 489.18 205.87)" xml:space="preserve"><tspan x="0" y="0" fill="#1a1a1a" font-family="'Open Sans'" font-size="14px" font-style="italic" font-weight="700">x</tspan></text>
 <path transform="matrix(1.5482 0 0 1.54 500.68 205.87)" d="m9.4496 1.2924e-4 -0.23213-1.0653h-0.050463c-0.37847 0.46671-0.7519 0.78631-1.1203 0.95372-0.3709 0.16234-0.83517 0.2435-1.3928 0.2435-0.74181 0-1.3221-0.1877-1.746-0.56817-0.41884-0.38555-0.62574-0.92836-0.62574-1.6335 0-1.5143 1.2061-2.3082 3.6233-2.3843l1.2717-0.040584v-0.46671c0-0.58086-0.12868-1.0095-0.38352-1.2885-0.24979-0.28409-0.6535-0.42613-1.2111-0.42613-0.6207 0-1.3221 0.19024-2.1094 0.56817l-0.35324-0.86241c0.36838-0.20292 0.77209-0.36018 1.2111-0.47686 0.44408-0.11414 0.88311-0.17248 1.3221-0.17248 0.8932 0 1.5568 0.20038 1.9883 0.59861 0.42894 0.40077 0.64593 1.0349 0.64593 1.9074v5.1136zm-2.5635-0.80153c0.70648 0 1.2616-0.19277 1.6653-0.57832 0.40371-0.38555 0.60556-0.92582 0.60556-1.6234v-0.67978l-1.1405 0.05073c-0.90329 0.027901-1.5517 0.16741-1.9479 0.41598-0.39866 0.25111-0.59547 0.63666-0.59547 1.1566 0 0.41345 0.12111 0.72797 0.36334 0.94358 0.24727 0.21053 0.59799 0.31452 1.0496 0.31452zm10.865 0.80153v-4.8498c0-0.60876-0.13877-1.0603-0.4138-1.3596-0.27755-0.30438-0.71405-0.45657-1.312-0.45657-0.78218 0-1.3524 0.21307-1.7157 0.6392-0.36334 0.42106-0.545 1.1211-0.545 2.1002v3.9265h-1.1405v-7.4979h0.92852l0.18167 1.0349h0.05046c0.23465-0.37033 0.56014-0.65949 0.97899-0.86241 0.41632-0.20292 0.88311-0.30438 1.4029-0.30438 0.90077 0 1.5795 0.22067 2.0387 0.65949 0.45669 0.43374 0.6863 1.1262 0.6863 2.0799v4.8904zm8.5636-1.0045h-0.06056c-0.52482 0.75841-1.3095 1.1363-2.3516 1.1363-0.97646 0-1.7359-0.33482-2.2809-1.0045-0.545-0.66963-0.8175-1.6183-0.8175-2.851 0-1.2378 0.2725-2.1966 0.8175-2.8815 0.545-0.68232 1.3045-1.0247 2.2809-1.0247 1.0143 0 1.7965 0.37033 2.3415 1.1059h0.09083l-0.05046-0.53774-0.03028-0.52759v-3.0438h1.1405v10.633h-0.92852zm-2.2608 0.19277c0.77209 0 1.3322-0.20799 1.6754-0.62905 0.3482-0.42613 0.52482-1.1084 0.52482-2.0495v-0.23336c0-1.0603-0.17914-1.8187-0.53491-2.2727-0.35072-0.4515-0.91338-0.67978-1.6855-0.67978-0.66611 0-1.1783 0.26126-1.5341 0.78124-0.35072 0.51491-0.52482 1.2429-0.52482 2.1814 0 0.96133 0.1741 1.6842 0.52482 2.1712 0.35577 0.48701 0.87301 0.73051 1.5543 0.73051z" fill="#1a1a1a" aria-label=" and "/>
 <text transform="matrix(1.5442 0 0 1.54 550.6 205.87)" xml:space="preserve"><tspan x="0" y="0" fill="#1a1a1a" font-family="'Open Sans'" font-size="14px" font-style="italic" font-weight="700">y</tspan></text>
 <path transform="matrix(1.5402 0 0 1.54 525.52 230.51)" d="m0 0v9.8182" clip-path="url(#ak)" fill="none" stroke="#333" stroke-miterlimit="10" stroke-width="2"/>
 <path transform="matrix(0 1.54 -1.5402 0 525.52 261.31)" d="m-12.727-7.5455 12.727 7.5455-12.727 7.5455z" clip-path="url(#aj)" fill="#333"/>
 <path transform="matrix(1.5402 0 0 1.54 433.1 14.908)" d="m29 0h62c0.94979 0 1.8973 0.046548 2.8425 0.13964 0.94521 0.093095 1.8836 0.23229 2.8151 0.41758 0.93154 0.18529 1.8518 0.4158 2.7606 0.6915 0.90888 0.27571 1.8021 0.5953 2.6795 0.95876 0.8775 0.36347 1.7351 0.76906 2.5727 1.2168 0.83764 0.44773 1.6513 0.93542 2.441 1.4631 0.78973 0.52767 1.5517 1.0928 2.2859 1.6953s1.4371 1.2396 2.1087 1.9112c0.6716 0.6716 1.3087 1.3745 1.9112 2.1087 0.60254 0.7342 1.1676 1.4962 1.6953 2.2859s1.0154 1.6034 1.4631 2.441c0.44772 0.83764 0.85331 1.6952 1.2168 2.5727 0.36347 0.87749 0.68306 1.7707 0.95877 2.6796 0.2757 0.90889 0.5062 1.8291 0.69149 2.7606 0.1853 0.93154 0.3245 1.8699 0.41759 2.8151 0.0931 0.94521 0.13965 1.8927 0.13965 2.8425v2c0 0.94978-0.0465 1.8973-0.13965 2.8425-0.0931 0.94521-0.2323 1.8836-0.41759 2.8151-0.18529 0.93154-0.41579 1.8517-0.69149 2.7606-0.27571 0.90889-0.5953 1.8021-0.95877 2.6796-0.36348 0.87749-0.76907 1.7351-1.2168 2.5727-0.44773 0.83764-0.93543 1.6513-1.4631 2.441-0.52767 0.78972-1.0928 1.5517-1.6953 2.2859-0.60254 0.7342-1.2396 1.4371-1.9112 2.1087-0.67159 0.6716-1.3745 1.3087-2.1087 1.9112-0.73419 0.60254-1.4962 1.1676-2.2859 1.6953-0.78971 0.52768-1.6034 1.0154-2.441 1.4631-0.83763 0.44773-1.6952 0.85332-2.5727 1.2168-0.87748 0.36347-1.7707 0.68306-2.6795 0.95877-0.90889 0.27571-1.8291 0.50621-2.7606 0.6915-0.93153 0.1853-1.8699 0.32449-2.8151 0.41759-0.94521 0.093098-1.8927 0.13964-2.8425 0.13964h-62c-0.94978 0-1.8973-0.04655-2.8425-0.13964-0.94521-0.0931-1.8836-0.23229-2.8151-0.41759-0.93154-0.18529-1.8518-0.41579-2.7606-0.6915-0.90889-0.27571-1.8021-0.5953-2.6796-0.95877-0.87749-0.36347-1.735-0.76906-2.5727-1.2168-0.83764-0.44773-1.6513-0.93543-2.441-1.4631-0.78972-0.52767-1.5517-1.0928-2.2859-1.6953-0.73419-0.60254-1.4371-1.2396-2.1087-1.9112-0.6716-0.6716-1.3087-1.3745-1.9112-2.1087-0.60254-0.7342-1.1676-1.4962-1.6953-2.2859-0.52767-0.78972-1.0154-1.6034-1.4631-2.441-0.44773-0.83764-0.85332-1.6952-1.2168-2.5727-0.36347-0.87749-0.68305-1.7707-0.95876-2.6796-0.27571-0.90889-0.50621-1.8291-0.6915-2.7606-0.18529-0.93153-0.32449-1.8699-0.41758-2.8151-0.093095-0.94521-0.13964-1.8927-0.13964-2.8425v-2c0-0.94978 0.046548-1.8973 0.13964-2.8425 0.093095-0.94521 0.23229-1.8836 0.41758-2.8151 0.18529-0.93154 0.4158-1.8518 0.6915-2.7606 0.27571-0.90889 0.5953-1.8021 0.95876-2.6796s0.76906-1.735 1.2168-2.5727c0.44773-0.83764 0.93542-1.6513 1.4631-2.441 0.52767-0.78972 1.0928-1.5517 1.6953-2.2859 0.60254-0.73419 1.2396-1.4371 1.9112-2.1087 0.6716-0.6716 1.3745-1.3087 2.1087-1.9112 0.7342-0.60254 1.4962-1.1676 2.2859-1.6953 0.78972-0.52767 1.6034-1.0154 2.441-1.4631 0.83764-0.44773 1.6952-0.85332 2.5727-1.2168s1.7707-0.68305 2.6796-0.95876c0.90889-0.27571 1.8291-0.50621 2.7606-0.6915 0.93154-0.18529 1.8699-0.32449 2.8151-0.41758 0.94521-0.093095 1.8927-0.13964 2.8425-0.13964z" clip-path="url(#ai)" fill="#fff" stroke="#1a1a1a" stroke-miterlimit="10" stroke-width="2"/>
 <path transform="matrix(1.5492 0 0 1.54 493.99 67.269)" d="m7.0099-2.6576c0 0.88016-0.32022 1.5676-0.95813 2.0596-0.63287 0.48701-1.4977 0.73051-2.592 0.73051-1.1851 0-2.0953-0.15219-2.7332-0.45657v-1.1161c0.40847 0.16994 0.85728 0.30438 1.3414 0.40584 0.48411 0.10146 0.96066 0.15219 1.4322 0.15219 0.77155 0 1.354-0.14458 1.7448-0.43628 0.39586-0.29677 0.59505-0.70514 0.59505-1.2277 0-0.35004-0.070599-0.63412-0.2118-0.85226-0.1412-0.22321-0.37317-0.42613-0.69591-0.60876-0.32274-0.1877-0.81694-0.40077-1.4826-0.6392-0.93544-0.32974-1.6011-0.7229-1.997-1.1769-0.39838-0.4591-0.59505-1.0577-0.59505-1.7958 0-0.77109 0.28744-1.3824 0.86736-1.8364 0.5774-0.4515 1.3439-0.67978 2.2995-0.67978 0.98839 0 1.8986 0.18263 2.7332 0.54788l-0.36308 1.0045c-0.82198-0.34496-1.6213-0.51744-2.4004-0.51744-0.62027 0-1.1044 0.1319-1.4523 0.39569-0.34291 0.2638-0.51437 0.63412-0.51437 1.1059 0 0.34496 0.063035 0.62905 0.19163 0.85226 0.12607 0.21814 0.34291 0.42106 0.64548 0.60876 0.30257 0.18263 0.76651 0.38555 1.3918 0.60876 1.0489 0.37286 1.7675 0.77617 2.1583 1.2074 0.39586 0.42613 0.59505 0.98162 0.59505 1.6639zm5.121 2.6582h-1.1598v-8.9589h-3.1669v-1.0349h7.4936v1.0349h-3.1669zm10.953 0-1.2405-3.1757h-4.004l-1.2304 3.1757h-1.18l3.9536-10.034h0.9783l3.9233 10.034zm-1.6036-4.2207-1.1598-3.1047c-0.15633-0.39062-0.31266-0.87255-0.47402-1.4407-0.09581 0.44135-0.23701 0.92075-0.4236 1.4407l-1.18 3.1047zm5.3403 0.060876v4.1598h-1.1598v-9.9938h2.7433c1.2229 0 2.1281 0.23843 2.713 0.71022 0.58497 0.46671 0.87745 1.1719 0.87745 2.1104 0 1.3266-0.67069 2.2194-2.007 2.6785l2.713 4.4947h-1.3716l-2.4206-4.1598zm0-0.9943h1.5935c0.81946 0 1.4221-0.16234 1.8053-0.48701 0.38325-0.32467 0.57488-0.81421 0.57488-1.4712 0-0.65441-0.19667-1.1287-0.58497-1.4204-0.39082-0.29677-1.0161-0.44642-1.8759-0.44642h-1.5128zm10.57 5.1542h-1.1598v-8.9589h-3.1669v-1.0349h7.4936v1.0349h-3.1669z" fill="#333" aria-label="START"/>
 <path transform="matrix(1.5402 0 0 1.54 525.52 107.3)" d="m0 0v9.8182" clip-path="url(#ah)" fill="none" stroke="#333" stroke-miterlimit="10" stroke-width="2"/>
 <path transform="matrix(0 1.54 -1.5402 0 525.52 138.1)" d="m-12.727-7.5455 12.727 7.5455-12.727 7.5455z" clip-path="url(#af)" fill="#333"/>
 <path transform="matrix(1.5402 0 0 1.54 1064.6 384.51)" d="m30 15 26.422-13.211c1.1261-0.56306 2.3187-0.84458 3.5777-0.84458s2.4516 0.28153 3.5777 0.84458l42.111 21.056c0.66442 0.33221 1.2708 0.74888 1.8192 1.25s1.0178 1.0676 1.4083 1.6996c0.39054 0.6319 0.6873 1.3051 0.89029 2.0197 0.20301 0.71457 0.30451 1.4433 0.30451 2.1861 0 0.74285-0.1015 1.4716-0.30451 2.1861-0.20299 0.71457-0.49975 1.3878-0.89029 2.0197-0.39054 0.6319-0.85999 1.1984-1.4083 1.6995-0.54834 0.50113-1.1547 0.91781-1.8192 1.25l-42.111 21.056c-1.1261 0.56306-2.3187 0.84459-3.5777 0.84459s-2.4516-0.28153-3.5777-0.84459l-42.111-21.056c-0.66442-0.33221-1.2708-0.74889-1.8192-1.25-0.54835-0.50113-1.0178-1.0676-1.4083-1.6996-0.39054-0.6319-0.6873-1.3051-0.8903-2.0197-0.203-0.71457-0.30449-1.4433-0.30449-2.1861-1e-6 -0.74285 0.1015-1.4716 0.30449-2.1861 0.203-0.71458 0.49976-1.3878 0.8903-2.0197 0.39054-0.6319 0.85998-1.1984 1.4083-1.6996 0.54835-0.50113 1.1547-0.9178 1.8192-1.25z" clip-path="url(#ae)" fill="#fff" stroke="#1a1a1a" stroke-miterlimit="10" stroke-width="2"/>
 <text transform="matrix(1.5442 0 0 1.54 1121 436.87)" xml:space="preserve"><tspan x="0" y="0" fill="#1a1a1a" font-family="'Open Sans'" font-size="14px" font-style="italic" font-weight="700">y</tspan></text>
 <path transform="matrix(1.5482 0 0 1.54 1132.2 436.87)" d="m4.3429-2.6887 5.359-2.222-5.359-2.5568v-1.0146l6.5701 3.2771v0.66963l-6.5701 2.8815zm8.1168-3.1757v-0.93343h6.3481v0.93343zm0 2.7901v-0.93343h6.3481v0.93343zm11.621-1.1972c0-1.9683 0.37846-3.4344 1.1404-4.4034 0.76702-0.97401 1.8974-1.461 3.391-1.461 0.51723 0 0.92345 0.04566 1.2212 0.1319v0.97401c-0.35071-0.11414-0.75188-0.17248-1.201-0.17248-1.0774 0-1.8974 0.33482-2.4625 1.0045-0.56517 0.66456-0.87551 1.7121-0.9285 3.1452h0.08074c0.50462-0.78378 1.2969-1.1769 2.3818-1.1769 0.90074 0 1.6072 0.27394 2.1194 0.82182 0.51723 0.54281 0.77711 1.2759 0.77711 2.2017 0 1.0425-0.28258 1.8618-0.84776 2.4553-0.56517 0.58847-1.3322 0.8827-2.3011 0.8827-1.037 0-1.857-0.38555-2.4625-1.1566-0.60554-0.77617-0.90831-1.8592-0.90831-3.2467zm3.3607 3.4395c0.64591 0 1.1455-0.20292 1.5038-0.60876 0.35575-0.40584 0.53489-0.9943 0.53489-1.7654 0-0.66202-0.16905-1.182-0.50462-1.5625-0.33052-0.37794-0.82505-0.56817-1.4836-0.56817-0.41126 0-0.7872 0.086241-1.1303 0.25365-0.33809 0.16994-0.61059 0.4033-0.81748 0.70007-0.20185 0.29931-0.30277 0.60622-0.30277 0.92328 0 0.46671 0.09083 0.90299 0.27249 1.3088 0.18671 0.40584 0.44659 0.72797 0.77711 0.96387 0.33557 0.23843 0.71908 0.35511 1.1505 0.35511zm11.152-4.1801c0 1.7248-0.27249 3.0134-0.81748 3.8656-0.54499 0.85226-1.3776 1.2784-2.4928 1.2784-1.0774 0-1.8974-0.43628-2.4625-1.3088-0.56012-0.87255-0.83766-2.1509-0.83766-3.8352 0-1.7375 0.26745-3.0286 0.80739-3.8758 0.54499-0.84465 1.3751-1.2682 2.4928-1.2682 1.0824 0 1.9024 0.44135 2.4625 1.319 0.56517 0.88016 0.84776 2.156 0.84776 3.825zm-5.46 0c0 1.4559 0.16652 2.5137 0.50462 3.1757 0.34314 0.66456 0.89065 0.9943 1.645 0.9943 0.75188 0 1.2969-0.33482 1.635-1.0045 0.34314-0.67471 0.51471-1.7299 0.51471-3.1655 0-1.4331-0.17157-2.4858-0.51471-3.1554-0.33809-0.66963-0.88308-1.0045-1.635-1.0045-0.7544 0-1.3019 0.33228-1.645 0.9943-0.33809 0.65695-0.50462 1.7121-0.50462 3.1655z" fill="#1a1a1a" aria-label=" &gt;= 60"/>
 <path transform="matrix(1.5402 0 0 1.54 17.23 476.91)" d="m30 15 26.422-13.211c1.1261-0.56306 2.3187-0.84458 3.5777-0.84458s2.4516 0.28153 3.5777 0.84458l42.111 21.056c0.66442 0.33221 1.2708 0.74888 1.8192 1.25s1.0178 1.0676 1.4083 1.6996c0.39054 0.6319 0.6873 1.3051 0.89029 2.0197 0.20301 0.71457 0.30451 1.4433 0.30451 2.1861 0 0.74285-0.1015 1.4716-0.30451 2.1861-0.20299 0.71457-0.49975 1.3878-0.89029 2.0197-0.39054 0.6319-0.85999 1.1984-1.4083 1.6995-0.54834 0.50113-1.1547 0.91781-1.8192 1.25l-42.111 21.056c-1.1261 0.56306-2.3187 0.84459-3.5777 0.84459s-2.4516-0.28153-3.5777-0.84459l-42.111-21.056c-0.66442-0.33221-1.2708-0.74889-1.8192-1.25-0.54835-0.50113-1.0178-1.0676-1.4083-1.6996-0.39054-0.6319-0.6873-1.3051-0.8903-2.0197-0.203-0.71457-0.30449-1.4433-0.30449-2.1861-1e-6 -0.74285 0.1015-1.4716 0.30449-2.1861 0.203-0.71458 0.49976-1.3878 0.8903-2.0197 0.39054-0.6319 0.85998-1.1984 1.4083-1.6996 0.54835-0.50113 1.1547-0.9178 1.8192-1.25z" clip-path="url(#ad)" fill="#fff" stroke="#1a1a1a" stroke-miterlimit="10" stroke-width="2"/>
 <text transform="matrix(1.5442 0 0 1.54 79.778 529.27)" xml:space="preserve"><tspan x="0" y="0" fill="#1a1a1a" font-family="'Open Sans'" font-size="14px" font-style="italic" font-weight="700">y</tspan></text>
 <path transform="matrix(1.5478 0 0 1.54 91.041 529.27)" d="m10.916-1.6526-6.5719-2.8815v-0.66963l6.5719-3.2771v1.0146l-5.3403 2.5365 5.3403 2.2423zm11.236-5.9861c0 0.63666-0.17919 1.1566-0.53504 1.5625-0.35838 0.40584-0.86566 0.67724-1.5244 0.81168v0.060876c0.80761 0.096387 1.4032 0.35004 1.7868 0.76095 0.38866 0.41345 0.58552 0.95118 0.58552 1.6132 0 0.95372-0.33314 1.6893-0.99942 2.2017-0.66123 0.5073-1.595 0.76095-2.8064 0.76095-0.53252 0-1.0196-0.040584-1.4638-0.12175-0.43914-0.073558-0.86313-0.21307-1.272-0.41598v-1.0755c0.42904 0.21053 0.89089 0.37286 1.383 0.48701 0.48961 0.10907 0.95399 0.16234 1.3931 0.16234 1.7212 0 2.5843-0.67471 2.5843-2.0292 0-1.2099-0.95399-1.8161-2.8569-1.8161h-0.97922v-0.97401h0.99942c0.77228 0 1.3881-0.17248 1.8474-0.51744 0.4568-0.34496 0.68647-0.82182 0.68647-1.4306 0-0.48701-0.16909-0.86748-0.50476-1.1465-0.33819-0.28409-0.79247-0.42613-1.3628-0.42613-0.43914 0-0.85304 0.060876-1.2417 0.18263-0.38361 0.11668-0.82528 0.33482-1.3225 0.65949l-0.57542-0.77109c0.40885-0.32467 0.8808-0.57832 1.4133-0.76095 0.53756-0.18263 1.1029-0.27394 1.696-0.27394 0.96913 0 1.7212 0.22321 2.2613 0.66963 0.53756 0.44135 0.80761 1.0501 0.80761 1.8263zm8.4395 2.6278c0 1.7248-0.27257 3.0134-0.8177 3.8656-0.54514 0.85226-1.378 1.2784-2.4935 1.2784-1.0777 0-1.8979-0.43628-2.4632-1.3088-0.56028-0.87255-0.83789-2.1509-0.83789-3.8352 0-1.7375 0.26752-3.0286 0.80761-3.8758 0.54514-0.84465 1.3755-1.2682 2.4935-1.2682 1.0827 0 1.9029 0.44135 2.4632 1.319 0.56533 0.88016 0.84799 2.156 0.84799 3.825zm-5.4615 0c0 1.4559 0.16657 2.5137 0.50476 3.1757 0.34323 0.66456 0.89089 0.9943 1.6455 0.9943 0.75208 0 1.2972-0.33482 1.6354-1.0045 0.34323-0.67471 0.51485-1.7299 0.51485-3.1655 0-1.4331-0.17162-2.4858-0.51485-3.1554-0.33819-0.66963-0.88332-1.0045-1.6354-1.0045-0.75461 0-1.3023 0.33228-1.6455 0.9943-0.33819 0.65695-0.50476 1.7121-0.50476 3.1655z" fill="#1a1a1a" aria-label=" &lt; 30"/>
 <path transform="matrix(1.5402 0 0 1.54 109.65 446.12)" d="m0 0v9.8182" clip-path="url(#ac)" fill="none" stroke="#333" stroke-miterlimit="10" stroke-width="2"/>
 <path transform="matrix(0 1.54 -1.5402 0 109.65 476.92)" d="m-12.727-7.5455 12.727 7.5455-12.727 7.5455z" clip-path="url(#ab)" fill="#333"/>
 <path transform="matrix(1.5402 0 0 1.54 232.87 569.32)" d="m30 15 26.422-13.211c1.1261-0.56306 2.3187-0.84458 3.5777-0.84458s2.4516 0.28153 3.5777 0.84458l42.111 21.056c0.66442 0.33221 1.2708 0.74888 1.8192 1.25s1.0178 1.0676 1.4083 1.6996c0.39054 0.6319 0.6873 1.3051 0.89029 2.0197 0.20301 0.71457 0.30451 1.4433 0.30451 2.1861 0 0.74285-0.1015 1.4716-0.30451 2.1861-0.20299 0.71457-0.49975 1.3878-0.89029 2.0197-0.39054 0.6319-0.85999 1.1984-1.4083 1.6995-0.54834 0.50113-1.1547 0.91781-1.8192 1.25l-42.111 21.056c-1.1261 0.56306-2.3187 0.84459-3.5777 0.84459s-2.4516-0.28153-3.5777-0.84459l-42.111-21.056c-0.66442-0.33221-1.2708-0.74889-1.8192-1.25-0.54835-0.50113-1.0178-1.0676-1.4083-1.6996-0.39054-0.6319-0.6873-1.3051-0.8903-2.0197-0.203-0.71457-0.30449-1.4433-0.30449-2.1861-1e-6 -0.74285 0.1015-1.4716 0.30449-2.1861 0.203-0.71458 0.49976-1.3878 0.8903-2.0197 0.39054-0.6319 0.85998-1.1984 1.4083-1.6996 0.54835-0.50113 1.1547-0.9178 1.8192-1.25z" clip-path="url(#aa)" fill="#fff" stroke="#1a1a1a" stroke-miterlimit="10" stroke-width="2"/>
 <text transform="matrix(1.5442 0 0 1.54 283.02 621.68)" xml:space="preserve"><tspan x="0" y="0" fill="#1a1a1a" font-family="'Open Sans'" font-size="14px" font-style="italic" font-weight="700">y</tspan></text>
 <g clip-path="url(#v)">
  <path transform="matrix(1.548 0 0 1.54 294.29 621.68)" d="m4.3441-2.6877 5.3598-2.222-5.3598-2.5568v-1.0146l6.5711 3.2771v0.66963l-6.5711 2.8815zm8.1154-3.1757v-0.93343h6.349v0.93343zm0 2.7901v-0.93343h6.349v0.93343zm15.709 3.0742h-1.1002v-7.1225c0-0.59354 0.01514-1.1566 0.05047-1.6842-0.09589 0.096387-0.20188 0.19785-0.323 0.30438-0.12113 0.10146-0.66367 0.54535-1.6251 1.3291l-0.60563-0.78124 2.6446-2.0393h0.95891zm10.427-5.0121c0 1.7248-0.27253 3.0134-0.8176 3.8656-0.54507 0.85226-1.3778 1.2784-2.4932 1.2784-1.0775 0-1.8976-0.43628-2.4629-1.3088-0.56021-0.87255-0.83779-2.1509-0.83779-3.8352 0-1.7375 0.26749-3.0286 0.80751-3.8758 0.54507-0.84465 1.3753-1.2682 2.4932-1.2682 1.0826 0 1.9027 0.44135 2.4629 1.319 0.56525 0.88016 0.84788 2.156 0.84788 3.825zm-5.4608 0c0 1.4559 0.16655 2.5137 0.50469 3.1757 0.34319 0.66456 0.89078 0.9943 1.6453 0.9943 0.75199 0 1.2971-0.33482 1.6352-1.0045 0.34319-0.67471 0.51478-1.7299 0.51478-3.1655 0-1.4331-0.1716-2.4858-0.51478-3.1554-0.33814-0.66963-0.88321-1.0045-1.6352-1.0045-0.75451 0-1.3021 0.33228-1.6453 0.9943-0.33814 0.65695-0.50469 1.7121-0.50469 3.1655zm13.468 0c0 1.7248-0.27253 3.0134-0.8176 3.8656s-1.3778 1.2784-2.4932 1.2784c-1.0775 0-1.8976-0.43628-2.4629-1.3088-0.56021-0.87255-0.83779-2.1509-0.83779-3.8352 0-1.7375 0.26749-3.0286 0.80751-3.8758 0.54507-0.84465 1.3753-1.2682 2.4932-1.2682 1.0826 0 1.9027 0.44135 2.4629 1.319 0.56526 0.88016 0.84788 2.156 0.84788 3.825zm-5.4608 0c0 1.4559 0.16655 2.5137 0.50469 3.1757 0.34319 0.66456 0.89078 0.9943 1.6453 0.9943 0.75199 0 1.2971-0.33482 1.6352-1.0045 0.34319-0.67471 0.51479-1.7299 0.51479-3.1655 0-1.4331-0.1716-2.4858-0.51479-3.1554-0.33814-0.66963-0.88321-1.0045-1.6352-1.0045-0.75451 0-1.3021 0.33228-1.6453 0.9943-0.33814 0.65695-0.50469 1.7121-0.50469 3.1655z" fill="#1a1a1a" aria-label=" &gt;= 100"/>
  <g clip-path="url(#w)">
   <g clip-path="url(#x)">
    <g clip-path="url(#y)">
     <path transform="matrix(1.5402 0 0 1.54 202.06 523.11)" d="m0 0h72c5.3333 0 8 2.6667 8 8v11.818" clip-path="url(#z)" fill="none" stroke="#333" stroke-miterlimit="10" stroke-width="2"/>
    </g>
   </g>
  </g>
 </g>
 <path transform="matrix(0 1.54 -1.5402 0 325.28 569.31)" d="m-12.727-7.5455 12.727 7.5455-12.727 7.5455z" clip-path="url(#u)" fill="#333"/>
 <text transform="matrix(1.5486 0 0 1.54 228.46 529.27)" xml:space="preserve"><tspan x="0" y="0" fill="#333333" font-family="'Noto Sans'" font-size="14px">False</tspan></text>
 <path transform="matrix(1.5402 0 0 1.54 17.23 723.32)" d="m8 0h104c0.52528 0 1.0455 0.051239 1.5607 0.15372 0.51518 0.10248 1.0154 0.25423 1.5007 0.45525s0.94632 0.44745 1.3831 0.73928 0.84087 0.62347 1.2123 0.9949c0.37143 0.37143 0.70307 0.77553 0.99491 1.2123 0.29183 0.43676 0.53825 0.89779 0.73927 1.3831 0.20101 0.4853 0.35277 0.98555 0.45526 1.5007 0.10247 0.51519 0.15371 1.0354 0.15372 1.5607v44c-1e-5 0.52529-0.0512 1.0455-0.15373 1.5607-0.10249 0.51519-0.25424 1.0154-0.45525 1.5007-0.20102 0.4853-0.44745 0.94633-0.73928 1.3831-0.29183 0.43676-0.62347 0.84086-0.9949 1.2123s-0.77554 0.70307-1.2123 0.9949c-0.43676 0.29183-0.89779 0.53825-1.3831 0.73928-0.4853 0.20102-0.98556 0.35277-1.5007 0.45525-0.51519 0.10248-1.0354 0.15372-1.5607 0.15372h-104c-0.52529-4e-6 -1.0455-0.051247-1.5607-0.15373-0.51519-0.10248-1.0154-0.25422-1.5007-0.45524-0.4853-0.20102-0.94633-0.44745-1.3831-0.73928-0.43676-0.29184-0.84086-0.62347-1.2123-0.9949-0.37143-0.37143-0.70307-0.77553-0.9949-1.2123-0.29183-0.43676-0.53826-0.8978-0.73928-1.3831s-0.35277-0.98555-0.45525-1.5007c-0.10248-0.51519-0.15372-1.0354-0.15372-1.5607v-44c0-0.52529 0.051239-1.0455 0.15372-1.5607 0.10248-0.51519 0.25423-1.0154 0.45525-1.5007 0.20102-0.4853 0.44745-0.94633 0.73928-1.3831 0.29183-0.43676 0.62347-0.84086 0.9949-1.2123 0.37143-0.37143 0.77553-0.70307 1.2123-0.9949 0.43676-0.29183 0.89779-0.53826 1.3831-0.73928 0.4853-0.20102 0.98555-0.35277 1.5007-0.45525 0.51519-0.10248 1.0354-0.15372 1.5607-0.15372z" clip-path="url(#t)" fill="#fff" stroke="#1a1a1a" stroke-miterlimit="10" stroke-width="2"/>
 <text transform="matrix(1.5463 0 0 1.54 75.519 775.68)" xml:space="preserve"><tspan x="0" y="0" fill="#1a1a1a" font-family="'Open Sans'" font-size="14px" font-style="italic" font-weight="700">z</tspan></text>
 <path transform="matrix(1.5472 0 0 1.54 85.386 775.68)" d="m4.4543-5.8644v-0.93343h6.3523v0.93343zm0 2.7901v-0.93343h6.3523v0.93343z" fill="#1a1a1a" aria-label=" = "/>
 <text transform="matrix(1.548 0 0 1.54 109.02 775.68)" xml:space="preserve"><tspan x="0" y="0" fill="#1a1a1a" font-family="'Open Sans'" font-size="14px" font-style="italic" font-weight="700">x</tspan></text>
 <path transform="matrix(1.5483 0 0 1.54 120.52 775.68)" d="m4.4913-10.633-0.29265 2.6988 2.7146-0.76095 0.18165 1.248-2.6036 0.20292 1.6954 2.2321-1.1807 0.6392-1.2009-2.4756-1.0899 2.4756-1.2009-0.6392 1.655-2.2321-2.5834-0.20292 0.20183-1.248 2.6742 0.76095-0.29265-2.6988z" fill="#1a1a1a" aria-label="*"/>
 <g clip-path="url(#n)">
  <text transform="matrix(1.5442 0 0 1.54 132.51 775.68)" xml:space="preserve"><tspan x="0" y="0" fill="#1a1a1a" font-family="'Open Sans'" font-size="14px" font-style="italic" font-weight="700">y</tspan></text>
  <g clip-path="url(#o)">
   <g clip-path="url(#p)">
    <g clip-path="url(#q)">
     <path transform="matrix(1.5402 0 0 1.54 109.65 569.32)" d="m0 0v89.818" clip-path="url(#s)" fill="none" stroke="#333" stroke-miterlimit="10" stroke-width="2"/>
    </g>
   </g>
  </g>
 </g>
 <path transform="matrix(0 1.54 -1.5402 0 109.65 723.32)" d="m-12.727-7.5455 12.727 7.5455-12.727 7.5455z" clip-path="url(#m)" fill="#333"/>
 <text transform="matrix(1.5496 0 0 1.54 86.835 641.51)" xml:space="preserve"><tspan x="0" y="0" dx="0 -0.70003092" fill="#333333" font-family="'Noto Sans'" font-size="14px">True</tspan></text>
 <path transform="matrix(1.5402 0 0 1.54 232.87 723.32)" d="m8 0h104c0.52528 0 1.0455 0.051239 1.5607 0.15372 0.51518 0.10248 1.0154 0.25423 1.5007 0.45525s0.94632 0.44745 1.3831 0.73928 0.84087 0.62347 1.2123 0.9949c0.37143 0.37143 0.70307 0.77553 0.99491 1.2123 0.29183 0.43676 0.53825 0.89779 0.73927 1.3831 0.20101 0.4853 0.35277 0.98555 0.45526 1.5007 0.10247 0.51519 0.15371 1.0354 0.15372 1.5607v44c-1e-5 0.52529-0.0512 1.0455-0.15373 1.5607-0.10249 0.51519-0.25424 1.0154-0.45525 1.5007-0.20102 0.4853-0.44745 0.94633-0.73928 1.3831-0.29183 0.43676-0.62347 0.84086-0.9949 1.2123s-0.77554 0.70307-1.2123 0.9949c-0.43676 0.29183-0.89779 0.53825-1.3831 0.73928-0.4853 0.20102-0.98556 0.35277-1.5007 0.45525-0.51519 0.10248-1.0354 0.15372-1.5607 0.15372h-104c-0.52529-4e-6 -1.0455-0.051247-1.5607-0.15373-0.51519-0.10248-1.0154-0.25422-1.5007-0.45524-0.4853-0.20102-0.94633-0.44745-1.3831-0.73928-0.43676-0.29184-0.84086-0.62347-1.2123-0.9949-0.37143-0.37143-0.70307-0.77553-0.9949-1.2123-0.29183-0.43676-0.53826-0.8978-0.73928-1.3831s-0.35277-0.98555-0.45525-1.5007c-0.10248-0.51519-0.15372-1.0354-0.15372-1.5607v-44c0-0.52529 0.051239-1.0455 0.15372-1.5607 0.10248-0.51519 0.25423-1.0154 0.45525-1.5007 0.20102-0.4853 0.44745-0.94633 0.73928-1.3831 0.29183-0.43676 0.62347-0.84086 0.9949-1.2123 0.37143-0.37143 0.77553-0.70307 1.2123-0.9949 0.43676-0.29183 0.89779-0.53826 1.3831-0.73928 0.4853-0.20102 0.98555-0.35277 1.5007-0.45525 0.51519-0.10248 1.0354-0.15372 1.5607-0.15372z" clip-path="url(#l)" fill="#fff" stroke="#1a1a1a" stroke-miterlimit="10" stroke-width="2"/>
 <text transform="matrix(1.5463 0 0 1.54 290.94 775.68)" xml:space="preserve"><tspan x="0" y="0" fill="#1a1a1a" font-family="'Open Sans'" font-size="14px" font-style="italic" font-weight="700">z</tspan></text>
 <path transform="matrix(1.5472 0 0 1.54 300.81 775.68)" d="m4.4559-5.8644v-0.93343h6.3523v0.93343zm0 2.7901v-0.93343h6.3523v0.93343z" fill="#1a1a1a" aria-label=" = "/>
 <text transform="matrix(1.548 0 0 1.54 324.44 775.68)" xml:space="preserve"><tspan x="0" y="0" fill="#1a1a1a" font-family="'Open Sans'" font-size="14px" font-style="italic" font-weight="700">x</tspan></text>
 <path transform="matrix(1.5468 0 0 1.54 335.97 775.68)" d="m4.4639-5.4078h2.8182v0.94358h-2.8182v2.9119h-0.94951v-2.9119h-2.8081v-0.94358h2.8081v-2.922h0.94951z" fill="#1a1a1a" aria-label="+"/>
 <g clip-path="url(#g)">
  <text transform="matrix(1.5442 0 0 1.54 348.36 775.68)" xml:space="preserve"><tspan x="0" y="0" fill="#1a1a1a" font-family="'Open Sans'" font-size="14px" font-style="italic" font-weight="700">y</tspan></text>
  <g clip-path="url(#h)">
   <g clip-path="url(#i)">
    <g clip-path="url(#j)">
     <path transform="matrix(1.5402 0 0 1.54 325.28 661.71)" d="m0 0v29.818" clip-path="url(#k)" fill="none" stroke="#333" stroke-miterlimit="10" stroke-width="2"/>
    </g>
   </g>
  </g>
 </g>
 <path transform="matrix(0 1.54 -1.5402 0 325.28 723.31)" d="m-12.727-7.5455 12.727 7.5455-12.727 7.5455z" clip-path="url(#e)" fill="#333"/>
 <text transform="matrix(1.5496 0 0 1.54 302.47 696.1)" xml:space="preserve"><tspan x="0" y="0" dx="0 -0.70003092" fill="#333333" font-family="'Noto Sans'" font-size="14px">True</tspan></text>
 <path transform="matrix(1.5402 0 0 1.54 386.89 846.52)" d="m90 0h79.754c0.30295-2.8198e-8 0.60492 0.017154 0.90592 0.051461 0.30101 0.034307 0.5991 0.085548 0.89429 0.15372 0.29518 0.068173 0.58557 0.15284 0.87114 0.254 0.28555 0.10116 0.56446 0.21817 0.83676 0.35102 0.27226 0.13285 0.53611 0.28069 0.79159 0.44352s0.50093 0.3396 0.73633 0.53031c0.2354 0.19071 0.45923 0.39414 0.67152 0.61028 0.21228 0.21614 0.41166 0.44361 0.5981 0.6824 0.18645 0.23879 0.35877 0.48737 0.51696 0.74574 0.15818 0.25837 0.30125 0.52486 0.42918 0.79948 0.12791 0.27462 0.23987 0.5556 0.33586 0.84294 0.096 0.28734 0.17545 0.57919 0.2383 0.87556 0.0628 0.29636 0.10869 0.59533 0.13757 0.89691 0.0289 0.30157 0.0406 0.60381 0.0352 0.90672-5e-3 0.30291-0.028 0.60453-0.0678 0.90487-0.0397 0.30034-0.0963 0.59746-0.16979 0.89137l-11 44c-0.10743 0.42973-0.24957 0.84766-0.42642 1.2538-0.17685 0.40612-0.38599 0.79486-0.62741 1.1662-0.24142 0.37138-0.51183 0.7203-0.81122 1.0468-0.29939 0.32646-0.62366 0.62599-0.97279 0.89859-0.34914 0.2726-0.71837 0.51453-1.1077 0.7258-0.38933 0.21127-0.79341 0.38898-1.2122 0.53312-0.41884 0.14414-0.84671 0.25275-1.2836 0.32582-0.43688 0.073075-0.87681 0.10961-1.3198 0.10961h-148.51c-0.30295-4e-6 -0.60493-0.01716-0.90594-0.05147-0.30101-0.034307-0.5991-0.085546-0.89429-0.15372-0.29518-0.068172-0.58556-0.15284-0.87113-0.254-0.28557-0.10116-0.56448-0.21817-0.83676-0.35101-0.27227-0.13285-0.53615-0.28069-0.79162-0.44352-0.25548-0.16283-0.50091-0.3396-0.73631-0.53031-0.2354-0.19071-0.45923-0.39414-0.67152-0.61028-0.21228-0.21614-0.41165-0.44361-0.59809-0.68239-0.18644-0.2388-0.35876-0.48737-0.51697-0.74574s-0.30126-0.52486-0.42919-0.79948c-0.12793-0.27462-0.23989-0.5556-0.33589-0.84294-0.096004-0.28734-0.17543-0.57919-0.23828-0.87555-0.062847-0.29637-0.10871-0.59534-0.13759-0.89692-0.028882-0.30157-0.040595-0.60381-0.03514-0.90672 0.00545-0.30291 0.028043-0.60453 0.067765-0.90487 0.039722-0.30034 0.096321-0.59746 0.1698-0.89136l11-44c0.10743-0.42973 0.24958-0.84765 0.42643-1.2538s0.38599-0.79486 0.62742-1.1662c0.24142-0.37138 0.51183-0.7203 0.81122-1.0468 0.29938-0.32646 0.62364-0.62599 0.97278-0.89859 0.34914-0.2726 0.71837-0.51453 1.1077-0.7258 0.38932-0.21127 0.79341-0.38897 1.2123-0.53312 0.41884-0.14415 0.84671-0.25275 1.2836-0.32583 0.43688-0.073074 0.8768-0.10961 1.3198-0.10961z" clip-path="url(#d)" fill="#fff" stroke="#1a1a1a" stroke-miterlimit="10" stroke-width="2"/>
 <path transform="matrix(1.5482 0 0 1.54 420.78 898.88)" d="m7.7091-7.0813c0 1.0146-0.34818 1.7958-1.0395 2.3437-0.68626 0.54281-1.6728 0.81168-2.957 0.81168h-1.1808v3.9265h-1.1606v-9.9938h2.5937c2.4953 0 3.7442 0.97148 3.7442 2.9119zm-5.1772 2.1509h1.0496c1.0294 0 1.7712-0.16487 2.2303-0.49715 0.46423-0.32974 0.69635-0.86494 0.69635-1.6031 0-0.65442-0.2195-1.1465-0.65598-1.4712-0.43144-0.32467-1.1051-0.48701-2.0184-0.48701h-1.3019zm10.518-2.6988c0.32799 0 0.62823 0.027901 0.89819 0.081168l-0.16147 1.0552c-0.31033-0.065949-0.58282-0.10146-0.81746-0.10146-0.60552 0-1.1253 0.24858-1.5542 0.74066-0.43144 0.48701-0.64589 1.1008-0.64589 1.8364v4.0178h-1.1404v-7.4979h0.93856l0.1312 1.39h0.05046c0.28258-0.48701 0.61814-0.86241 1.0092-1.1262 0.38854-0.2638 0.81998-0.39569 1.2918-0.39569zm3.4338 7.6298h-1.1404v-7.4979h1.1404zm-1.2312-9.5271c0-0.25619 0.06308-0.44642 0.19175-0.56817 0.12615-0.12175 0.2851-0.18263 0.47433-0.18263 0.18166 0 0.33556 0.06595 0.46423 0.19277 0.13372 0.12175 0.20184 0.30945 0.20184 0.55803 0 0.25872-0.06812 0.4515-0.20184 0.57832-0.12867 0.12175-0.28258 0.18263-0.46423 0.18263-0.18923 0-0.34818-0.060876-0.47433-0.18263-0.12867-0.12682-0.19175-0.3196-0.19175-0.57832zm8.7599 9.5271v-4.8498c0-0.60876-0.13877-1.0603-0.41377-1.3596-0.27753-0.30438-0.71401-0.45657-1.312-0.45657-0.78213 0-1.3523 0.21307-1.7156 0.6392-0.36331 0.42106-0.54497 1.1211-0.54497 2.1002v3.9265h-1.1404v-7.4979h0.92847l0.18166 1.0349h0.05046c0.23464-0.37033 0.56011-0.65949 0.97893-0.86241 0.4163-0.20292 0.88305-0.30438 1.4028-0.30438 0.90072 0 1.5794 0.22067 2.0386 0.65949 0.45666 0.43374 0.68626 1.1262 0.68626 2.0799v4.8904zm5.8887-0.80153c0.20184 0 0.39359-0.012682 0.57525-0.040584 0.1867-0.032974 0.33808-0.063412 0.45414-0.091314v0.86241c-0.12867 0.060876-0.31285 0.10653-0.55506 0.14204-0.23716 0.040584-0.4491 0.060876-0.6358 0.060876-1.4533 0-2.1799-0.76095-2.1799-2.2828v-4.4642h-1.0698v-0.53774l1.0698-0.47686 0.48442-1.6031h0.65598v1.735h2.1698v0.8827h-2.1698v4.4135c0 0.45403 0.10344 0.80153 0.31285 1.045 0.21446 0.23843 0.50965 0.35511 0.8881 0.35511zm7.1351-9.1922-0.27248 3.612h-0.71654l-0.28258-3.612zm6.9105 9.9938h-5.4295v-0.77109l4.0873-5.8441h-3.835v-0.8827h5.0763v0.8827l-4.0368 5.7325h4.1377zm5.0082-5.8644v-0.93343h6.3479v0.93343zm0 2.7901v-0.93343h6.3479v0.93343zm14.076 2.9931c0 0.46671 0.1312 0.80407 0.39359 1.0146 0.26744 0.20799 0.65851 0.31706 1.1707 0.32467v0.95372c-0.86287-0.0076094-1.5315-0.20799-2.0083-0.59861-0.4718-0.38555-0.70644-0.92836-0.70644-1.6234v-2.0799c0-0.47179-0.14634-0.81168-0.43396-1.0146-0.28258-0.20292-0.7014-0.30438-1.2514-0.30438v-0.96387c0.59038-0.00507 1.0193-0.11414 1.2817-0.32467 0.26744-0.20799 0.40368-0.53266 0.40368-0.97401v-2.0901c0-0.70261 0.24473-1.2505 0.73672-1.6436 0.48946-0.39062 1.1505-0.58847 1.978-0.58847v0.95372c-1.0445 0.027901-1.5643 0.48193-1.5643 1.3596v2.0089c0 0.98162-0.50965 1.5625-1.5239 1.7451v0.081168c1.0143 0.17755 1.5239 0.75587 1.5239 1.735zm4.8997 0.081168-2.846-7.4979h1.2211l1.6046 4.4439c0.36836 1.0425 0.58534 1.7197 0.64589 2.0292h0.05046c0.05298-0.2435 0.21193-0.74319 0.47433-1.5016 0.26744-0.75587 0.86792-2.4147 1.7964-4.9715h1.2211l-2.846 7.4979zm9.981 0-0.23212-1.0653h-0.05046c-0.37845 0.46671-0.75186 0.78631-1.1202 0.95372-0.37088 0.16234-0.83512 0.2435-1.3927 0.2435-0.74177 0-1.3221-0.1877-1.7459-0.56817-0.41882-0.38555-0.62571-0.92836-0.62571-1.6335 0-1.5143 1.206-2.3082 3.623-2.3843l1.2716-0.040584v-0.46671c0-0.58086-0.12867-1.0095-0.3835-1.2885-0.24978-0.28409-0.65346-0.42613-1.211-0.42613-0.62066 0-1.3221 0.19024-2.1092 0.56817l-0.35322-0.86241c0.36836-0.20292 0.77204-0.36018 1.211-0.47686 0.44405-0.11414 0.88305-0.17248 1.3221-0.17248 0.89315 0 1.5567 0.20038 1.9881 0.59861 0.42891 0.40077 0.64589 1.0349 0.64589 1.9074v5.1136zm-2.5634-0.80153c0.70644 0 1.2615-0.19277 1.6652-0.57832 0.40368-0.38555 0.60552-0.92582 0.60552-1.6234v-0.67978l-1.1404 0.05073c-0.90324 0.027901-1.5517 0.16741-1.9478 0.41598-0.39864 0.25111-0.59543 0.63666-0.59543 1.1566 0 0.41345 0.1211 0.72797 0.36331 0.94358 0.24726 0.21053 0.59795 0.31453 1.0496 0.31452zm6.8777 0.80153h-1.1404v-10.633h1.1404zm3.4691-7.4979v4.8701c0 0.60876 0.13624 1.0653 0.41377 1.3697 0.27501 0.29931 0.71149 0.44642 1.312 0.44642 0.77961 0 1.3523-0.21307 1.7156-0.6392 0.36331-0.4312 0.54497-1.1313 0.54497-2.1002v-3.9468h1.1303v7.4979h-0.93856l-0.16147-1.0045h-0.06055c-0.23716 0.37286-0.56011 0.65695-0.96884 0.85226-0.41125 0.1877-0.88306 0.28409-1.4129 0.28409-0.90828 0-1.592-0.2156-2.0487-0.64934-0.45162-0.4312-0.67617-1.1211-0.67617-2.0698v-4.9106zm10.693 7.6298c-1.1101 0-1.9856-0.33482-2.6239-1.0045-0.64084-0.67471-0.95874-1.6132-0.95874-2.8104 0-1.2099 0.29519-2.1712 0.8881-2.8815 0.59795-0.71022 1.3977-1.0653 2.4019-1.0653 0.93352 0 1.6753 0.31199 2.2203 0.93343 0.55002 0.61637 0.82755 1.428 0.82755 2.435v0.72036h-5.1671c0.02523 0.88016 0.24726 1.5498 0.66608 2.0089 0.42387 0.45403 1.0193 0.67978 1.7863 0.67978 0.80736 0 1.6046-0.16741 2.3918-0.5073v1.0146c-0.40368 0.16994-0.78466 0.2917-1.1404 0.36525-0.35827 0.073558-0.78718 0.11161-1.2918 0.11161zm-0.31285-6.8079c-0.60048 0-1.0773 0.19785-1.4331 0.58847-0.35827 0.39316-0.5702 0.93343-0.6358 1.6234h3.9157c0-0.71529-0.16147-1.2632-0.48442-1.6436-0.3179-0.37794-0.77204-0.56817-1.3624-0.56817zm15.105 2.922c0 1.2251-0.31033 2.1788-0.92847 2.8612-0.61309 0.68485-1.4608 1.0247-2.5432 1.0247-0.67364 0-1.2691-0.15473-1.7863-0.46671-0.51974-0.31706-0.91838-0.76602-1.201-1.3494-0.28258-0.58847-0.42387-1.2784-0.42387-2.0698 0-1.2226 0.30276-2.1738 0.90828-2.851 0.61057-0.68232 1.4634-1.0247 2.5533-1.0247 1.042 0 1.8721 0.35004 2.4927 1.045 0.61814 0.69754 0.92847 1.6411 0.92847 2.8307zm-5.7121 0c0 0.96133 0.19175 1.6918 0.57524 2.1915 0.3835 0.50223 0.94866 0.7508 1.6955 0.7508 0.73924 0 1.3019-0.24858 1.6854-0.7508 0.3835-0.49969 0.57525-1.2302 0.57525-2.1915 0-0.95372-0.19175-1.6766-0.57525-2.1712-0.3835-0.49208-0.9537-0.74066-1.7056-0.74066-0.74176 0-1.3019 0.2435-1.6854 0.73051-0.37845 0.48701-0.56515 1.215-0.56515 2.1814zm11.079-2.8612h-1.9074v6.6152h-1.1404v-6.6152h-1.3322v-0.5073l1.3322-0.41598v-0.41598c0-1.839 0.80231-2.7597 2.412-2.7597 0.39611 0 0.86287 0.08117 1.4028 0.2435l-0.30276 0.90299c-0.43901-0.14204-0.81241-0.21307-1.1202-0.21307-0.42386 0-0.74176 0.14712-0.94865 0.43628-0.20184 0.28409-0.30276 0.74066-0.30276 1.3697v0.47686h1.9074zm9.7943 6.6152h-5.4295v-0.77109l4.0873-5.8441h-3.835v-0.8827h5.0763v0.8827l-4.0368 5.7325h4.1377zm4.1276-3.9265c-1.0244-0.18263-1.534-0.76348-1.534-1.7451v-2.0089c0-0.87763-0.5147-1.3317-1.5441-1.3596v-0.95372c0.8326 0 1.4886 0.20038 1.968 0.59861 0.48442 0.39316 0.72663 0.9385 0.72663 1.6335v2.0901c0 0.44642 0.13372 0.77617 0.40368 0.98416 0.26744 0.20292 0.69888 0.30945 1.2918 0.31452v0.96387c-0.55254 0-0.97388 0.10146-1.2615 0.30438-0.29015 0.20292-0.43396 0.54281-0.43396 1.0146v2.0799c0 0.695-0.23716 1.2378-0.70644 1.6234-0.46424 0.39062-1.1278 0.591-1.9881 0.59861v-0.95372c0.5046-0.00761 0.8881-0.11668 1.1505-0.32467 0.26239-0.21053 0.39359-0.54788 0.39359-1.0146v-2.0292c0-0.51998 0.12362-0.91567 0.3734-1.1871 0.25483-0.27648 0.64085-0.45911 1.1606-0.54788zm3.9107-6.0673-0.27249 3.612h-0.71653l-0.28258-3.612z" fill="#1a1a1a" aria-label="Print 'z = {value of z}'"/>
 <path transform="matrix(1.5402 0 0 1.54 848.97 476.91)" d="m30 15 26.422-13.211c1.1261-0.56306 2.3187-0.84458 3.5777-0.84458s2.4516 0.28153 3.5777 0.84458l42.111 21.056c0.66442 0.33221 1.2708 0.74888 1.8192 1.25s1.0178 1.0676 1.4083 1.6996c0.39054 0.6319 0.6873 1.3051 0.89029 2.0197 0.20301 0.71457 0.30451 1.4433 0.30451 2.1861 0 0.74285-0.1015 1.4716-0.30451 2.1861-0.20299 0.71457-0.49975 1.3878-0.89029 2.0197-0.39054 0.6319-0.85999 1.1984-1.4083 1.6995-0.54834 0.50113-1.1547 0.91781-1.8192 1.25l-42.111 21.056c-1.1261 0.56306-2.3187 0.84459-3.5777 0.84459s-2.4516-0.28153-3.5777-0.84459l-42.111-21.056c-0.66442-0.33221-1.2708-0.74889-1.8192-1.25-0.54835-0.50113-1.0178-1.0676-1.4083-1.6996-0.39054-0.6319-0.6873-1.3051-0.8903-2.0197-0.203-0.71457-0.30449-1.4433-0.30449-2.1861-1e-6 -0.74285 0.1015-1.4716 0.30449-2.1861 0.203-0.71458 0.49976-1.3878 0.8903-2.0197 0.39054-0.6319 0.85998-1.1984 1.4083-1.6996 0.54835-0.50113 1.1547-0.9178 1.8192-1.25z" clip-path="url(#c)" fill="#fff" stroke="#1a1a1a" stroke-miterlimit="10" stroke-width="2"/>
 <text transform="matrix(1.5442 0 0 1.54 911.52 529.27)" xml:space="preserve"><tspan x="0" y="0" fill="#1a1a1a" font-family="'Open Sans'" font-size="14px" font-style="italic" font-weight="700">y</tspan></text>
 <g clip-path="url(#cu)">
  <path transform="matrix(1.5478 0 0 1.54 922.78 529.27)" d="m4.3434-2.6875 5.3605-2.222-5.3605-2.5568v-1.0146l6.5719 3.2771v0.66963l-6.5719 2.8815zm14.933-7.4471c0.90856 0 1.6278 0.21307 2.1604 0.6392 0.52999 0.42106 0.79751 1.0045 0.79751 1.7553 0 0.48701-0.15143 0.93343-0.45428 1.3393s-0.79247 0.77617-1.4638 1.1059c0.81266 0.39316 1.3881 0.80153 1.7263 1.2277 0.34323 0.42613 0.51485 0.92075 0.51485 1.4813 0 0.8269-0.29023 1.4864-0.86818 1.9785-0.58047 0.49462-1.3704 0.74066-2.3724 0.74066-1.0701 0-1.8954-0.23336-2.4733-0.70007-0.5729-0.46671-0.85808-1.1262-0.85808-1.9785 0-1.1414 0.69909-2.0343 2.0998-2.6785-0.63347-0.35004-1.0877-0.73305-1.3628-1.1465-0.27004-0.41091-0.4038-0.87509-0.4038-1.39 0-0.7229 0.265-1.2987 0.79751-1.7248 0.53756-0.4312 1.2568-0.64934 2.1604-0.64934zm-2.1604 7.6095c0 0.54788 0.18676 0.97909 0.56533 1.2885 0.38361 0.30438 0.91866 0.45657 1.6051 0.45657 0.6789 0 1.2064-0.15726 1.5849-0.47686 0.37604-0.32467 0.56533-0.76348 0.56533-1.319 0-0.43881-0.17919-0.83197-0.53504-1.1769-0.3508-0.34496-0.96913-0.67978-1.8575-1.0045-0.68142 0.2917-1.171 0.61637-1.4739 0.97401-0.30285 0.35257-0.45428 0.77109-0.45428 1.2581zm2.1402-6.6862c-0.56533 0-1.0146 0.13951-1.3426 0.41598-0.32304 0.2714-0.48456 0.63412-0.48456 1.0856 0 0.42106 0.13376 0.78124 0.4038 1.0856 0.26752 0.29931 0.76723 0.59608 1.4941 0.89285 0.65114-0.26887 1.113-0.56056 1.383-0.87255 0.26752-0.31706 0.4038-0.68485 0.4038-1.1059 0-0.4591-0.16657-0.82436-0.49466-1.0958-0.33062-0.26887-0.78489-0.40584-1.3628-0.40584zm11.337 4.2004c0 1.7248-0.27257 3.0134-0.8177 3.8656-0.54514 0.85226-1.378 1.2784-2.4935 1.2784-1.0777 0-1.8979-0.43628-2.4632-1.3088-0.56028-0.87255-0.83789-2.1509-0.83789-3.8352 0-1.7375 0.26752-3.0286 0.80761-3.8758 0.54514-0.84465 1.3755-1.2682 2.4935-1.2682 1.0827 0 1.9029 0.44135 2.4632 1.319 0.56533 0.88016 0.84799 2.156 0.84799 3.825zm-5.4615 0c0 1.4559 0.16657 2.5137 0.50476 3.1757 0.34323 0.66456 0.89089 0.9943 1.6455 0.9943 0.75208 0 1.2972-0.33482 1.6354-1.0045 0.34323-0.67471 0.51485-1.7299 0.51485-3.1655 0-1.4331-0.17162-2.4858-0.51485-3.1554-0.33819-0.66963-0.88332-1.0045-1.6354-1.0045-0.75461 0-1.3023 0.33228-1.6455 0.9943-0.33819 0.65695-0.50476 1.7121-0.50476 3.1655z" fill="#1a1a1a" aria-label=" &gt; 80"/>
  <g clip-path="url(#cv)">
   <g clip-path="url(#cw)">
    <g clip-path="url(#a)">
     <path transform="matrix(1.5402 0 0 1.54 941.38 430.72)" d="m80 0h-72c-5.3333 0-8 2.6667-8 8v11.818" clip-path="url(#b)" fill="none" stroke="#333" stroke-miterlimit="10" stroke-width="2"/>
    </g>
   </g>
  </g>
 </g>
 <path transform="matrix(0 1.54 -1.5402 0 941.38 476.92)" d="m-12.727-7.5455 12.727 7.5455-12.727 7.5455z" clip-path="url(#ct)" fill="#333"/>
 <text transform="matrix(1.5496 0 0 1.54 986.67 436.88)" xml:space="preserve"><tspan x="0" y="0" dx="0 -0.70003092" fill="#333333" font-family="'Noto Sans'" font-size="14px">True</tspan></text>
 <path transform="matrix(1.5402 0 0 1.54 633.33 569.32)" d="m30 15 26.422-13.211c1.1261-0.56306 2.3187-0.84458 3.5777-0.84458s2.4516 0.28153 3.5777 0.84458l42.111 21.056c0.66442 0.33221 1.2708 0.74888 1.8192 1.25s1.0178 1.0676 1.4083 1.6996c0.39054 0.6319 0.6873 1.3051 0.89029 2.0197 0.20301 0.71457 0.30451 1.4433 0.30451 2.1861 0 0.74285-0.1015 1.4716-0.30451 2.1861-0.20299 0.71457-0.49975 1.3878-0.89029 2.0197-0.39054 0.6319-0.85999 1.1984-1.4083 1.6995-0.54834 0.50113-1.1547 0.91781-1.8192 1.25l-42.111 21.056c-1.1261 0.56306-2.3187 0.84459-3.5777 0.84459s-2.4516-0.28153-3.5777-0.84459l-42.111-21.056c-0.66442-0.33221-1.2708-0.74889-1.8192-1.25-0.54835-0.50113-1.0178-1.0676-1.4083-1.6996-0.39054-0.6319-0.6873-1.3051-0.8903-2.0197-0.203-0.71457-0.30449-1.4433-0.30449-2.1861-1e-6 -0.74285 0.1015-1.4716 0.30449-2.1861 0.203-0.71458 0.49976-1.3878 0.8903-2.0197 0.39054-0.6319 0.85998-1.1984 1.4083-1.6996 0.54835-0.50113 1.1547-0.9178 1.8192-1.25z" clip-path="url(#cs)" fill="#fff" stroke="#1a1a1a" stroke-miterlimit="10" stroke-width="2"/>
 <text transform="matrix(1.5442 0 0 1.54 695.88 621.68)" xml:space="preserve"><tspan x="0" y="0" fill="#1a1a1a" font-family="'Open Sans'" font-size="14px" font-style="italic" font-weight="700">y</tspan></text>
 <g clip-path="url(#cm)">
  <path transform="matrix(1.5478 0 0 1.54 707.14 621.68)" d="m4.3429-2.6877 5.3605-2.222-5.3605-2.5568v-1.0146l6.5719 3.2771v0.66963l-6.5719 2.8815zm14.741-3.4192c1.0549 0 1.8827 0.2638 2.4834 0.79139 0.60571 0.52252 0.90856 1.2353 0.90856 2.1408 0 1.0349-0.33062 1.8466-0.98932 2.435-0.66123 0.58339-1.5698 0.87255-2.7257 0.87255-1.1256 0-1.9837-0.17755-2.5743-0.53774v-1.0958c0.31547 0.21053 0.70918 0.37286 1.1811 0.48701 0.47699 0.11668 0.94894 0.17248 1.4133 0.17248 0.80004 0 1.4234-0.1877 1.8676-0.56817 0.44418-0.37794 0.66628-0.92582 0.66628-1.6436 0-1.3925-0.85556-2.0901-2.5642-2.0901-0.43157 0-1.0095 0.068485-1.7364 0.20292l-0.58552-0.3754 0.37352-4.6773h4.9668v1.045h-3.9977l-0.25238 3.0032c0.52494-0.10653 1.0448-0.16234 1.5647-0.16234zm11.508 1.0958c0 1.7248-0.27257 3.0134-0.8177 3.8656s-1.378 1.2784-2.4935 1.2784c-1.0777 0-1.8979-0.43628-2.4632-1.3088-0.56028-0.87255-0.83789-2.1509-0.83789-3.8352 0-1.7375 0.26752-3.0286 0.80761-3.8758 0.54514-0.84465 1.3755-1.2682 2.4935-1.2682 1.0827 0 1.9029 0.44135 2.4632 1.319 0.56533 0.88016 0.84799 2.156 0.84799 3.825zm-5.4615 0c0 1.4559 0.16657 2.5137 0.50476 3.1757 0.34323 0.66456 0.89089 0.9943 1.6455 0.9943 0.75208 0 1.2972-0.33482 1.6354-1.0045 0.34323-0.67471 0.51485-1.7299 0.51485-3.1655 0-1.4331-0.17162-2.4858-0.51485-3.1554-0.33819-0.66963-0.88332-1.0045-1.6354-1.0045-0.75461 0-1.3023 0.33228-1.6455 0.9943-0.33819 0.65695-0.50476 1.7121-0.50476 3.1655z" fill="#1a1a1a" aria-label=" &gt; 50"/>
  <g clip-path="url(#cn)">
   <g clip-path="url(#co)">
    <g clip-path="url(#cp)">
     <path transform="matrix(1.5402 0 0 1.54 725.75 523.11)" d="m80 0h-72c-5.3333 0-8 2.6667-8 8v11.818" clip-path="url(#cq)" fill="none" stroke="#333" stroke-miterlimit="10" stroke-width="2"/>
    </g>
   </g>
  </g>
 </g>
 <path transform="matrix(0 1.54 -1.5402 0 725.75 569.31)" d="m-12.727-7.5455 12.727 7.5455-12.727 7.5455z" clip-path="url(#cl)" fill="#333"/>
 <text transform="matrix(1.5486 0 0 1.54 761.21 529.27)" xml:space="preserve"><tspan x="0" y="0" fill="#333333" font-family="'Noto Sans'" font-size="14px">False</tspan></text>
 <path transform="matrix(1.5402 0 0 1.54 433.1 969.72)" d="m29 0h62c0.94979 0 1.8973 0.046548 2.8425 0.13964 0.94521 0.093095 1.8836 0.23229 2.8151 0.41758 0.93154 0.18529 1.8518 0.4158 2.7606 0.6915 0.90888 0.27571 1.8021 0.5953 2.6795 0.95876 0.8775 0.36347 1.7351 0.76906 2.5727 1.2168 0.83764 0.44773 1.6513 0.93542 2.441 1.4631 0.78973 0.52767 1.5517 1.0928 2.2859 1.6953s1.4371 1.2396 2.1087 1.9112c0.6716 0.6716 1.3087 1.3745 1.9112 2.1087 0.60254 0.7342 1.1676 1.4962 1.6953 2.2859s1.0154 1.6034 1.4631 2.441c0.44772 0.83764 0.85331 1.6952 1.2168 2.5727 0.36347 0.87749 0.68306 1.7707 0.95877 2.6796 0.2757 0.90889 0.5062 1.8291 0.69149 2.7606 0.1853 0.93154 0.3245 1.8699 0.41759 2.8151 0.0931 0.94521 0.13965 1.8927 0.13965 2.8425v2c0 0.94978-0.0465 1.8973-0.13965 2.8425-0.0931 0.94521-0.2323 1.8836-0.41759 2.8151-0.18529 0.93154-0.41579 1.8517-0.69149 2.7606-0.27571 0.90889-0.5953 1.8021-0.95877 2.6796-0.36348 0.87749-0.76907 1.7351-1.2168 2.5727-0.44773 0.83764-0.93543 1.6513-1.4631 2.441-0.52767 0.78972-1.0928 1.5517-1.6953 2.2859-0.60254 0.7342-1.2396 1.4371-1.9112 2.1087-0.67159 0.6716-1.3745 1.3087-2.1087 1.9112-0.73419 0.60254-1.4962 1.1676-2.2859 1.6953-0.78971 0.52768-1.6034 1.0154-2.441 1.4631-0.83763 0.44773-1.6952 0.85332-2.5727 1.2168-0.87748 0.36347-1.7707 0.68306-2.6795 0.95877-0.90889 0.27571-1.8291 0.50621-2.7606 0.6915-0.93153 0.1853-1.8699 0.32449-2.8151 0.41759-0.94521 0.093098-1.8927 0.13964-2.8425 0.13964h-62c-0.94978 0-1.8973-0.04655-2.8425-0.13964-0.94521-0.0931-1.8836-0.23229-2.8151-0.41759-0.93154-0.18529-1.8518-0.41579-2.7606-0.6915-0.90889-0.27571-1.8021-0.5953-2.6796-0.95877-0.87749-0.36347-1.735-0.76906-2.5727-1.2168-0.83764-0.44773-1.6513-0.93543-2.441-1.4631-0.78972-0.52767-1.5517-1.0928-2.2859-1.6953-0.73419-0.60254-1.4371-1.2396-2.1087-1.9112-0.6716-0.6716-1.3087-1.3745-1.9112-2.1087-0.60254-0.7342-1.1676-1.4962-1.6953-2.2859-0.52767-0.78972-1.0154-1.6034-1.4631-2.441-0.44773-0.83764-0.85332-1.6952-1.2168-2.5727-0.36347-0.87749-0.68305-1.7707-0.95876-2.6796-0.27571-0.90889-0.50621-1.8291-0.6915-2.7606-0.18529-0.93153-0.32449-1.8699-0.41758-2.8151-0.093095-0.94521-0.13964-1.8927-0.13964-2.8425v-2c0-0.94978 0.046548-1.8973 0.13964-2.8425 0.093095-0.94521 0.23229-1.8836 0.41758-2.8151 0.18529-0.93154 0.4158-1.8518 0.6915-2.7606 0.27571-0.90889 0.5953-1.8021 0.95876-2.6796s0.76906-1.735 1.2168-2.5727c0.44773-0.83764 0.93542-1.6513 1.4631-2.441 0.52767-0.78972 1.0928-1.5517 1.6953-2.2859 0.60254-0.73419 1.2396-1.4371 1.9112-2.1087 0.6716-0.6716 1.3745-1.3087 2.1087-1.9112 0.7342-0.60254 1.4962-1.1676 2.2859-1.6953 0.78972-0.52767 1.6034-1.0154 2.441-1.4631 0.83764-0.44773 1.6952-0.85332 2.5727-1.2168s1.7707-0.68305 2.6796-0.95876c0.90889-0.27571 1.8291-0.50621 2.7606-0.6915 0.93154-0.18529 1.8699-0.32449 2.8151-0.41758 0.94521-0.093095 1.8927-0.13964 2.8425-0.13964z" clip-path="url(#ck)" fill="#fff" stroke="#1a1a1a" stroke-miterlimit="10" stroke-width="2"/>
 <path transform="matrix(1.5499 0 0 1.54 503.37 1022.1)" d="m6.9472 0.0012497h-5.5751v-9.9938h5.5751v1.0349h-4.4057v3.2163h4.1435v1.0247h-4.1435v3.683h4.4057zm10.024 0h-1.3308l-5.4642-8.3907h-0.05041c0.07309 0.98923 0.1109 1.8922 0.1109 2.709v5.6817h-1.0787v-9.9938h1.3207l5.4441 8.3501h0.06049c-0.01512-0.12175-0.03781-0.51237-0.07057-1.1769-0.02772-0.66963-0.03781-1.149-0.03025-1.4407v-5.7325h1.0888zm10.727-5.0933c0 1.6513-0.45115 2.9119-1.3509 3.7844-0.89474 0.87255-2.1827 1.3088-3.8612 1.3088h-2.7724v-9.9938h3.0648c1.5526 0 2.7573 0.43374 3.6193 1.2987 0.86702 0.85987 1.3005 2.0596 1.3005 3.6018zm-1.23 0.040584c0-1.3038-0.33017-2.2854-0.988-2.9423-0.65278-0.66202-1.6231-0.9943-2.9136-0.9943h-1.6836v7.9849h1.4114c1.3837 0 2.4246-0.33989 3.1253-1.0247 0.69815-0.68232 1.0485-1.6893 1.0485-3.0235z" fill="#333" aria-label="END"/>
 <path transform="matrix(1.5402 0 0 1.54 525.52 938.92)" d="m0 0v9.8182" clip-path="url(#cj)" fill="none" stroke="#333" stroke-miterlimit="10" stroke-width="2"/>
 <path transform="matrix(0 1.54 -1.5402 0 525.52 969.72)" d="m-12.727-7.5455 12.727 7.5455-12.727 7.5455z" clip-path="url(#ci)" fill="#333"/>
 <path transform="matrix(1.5402 0 0 1.54 848.97 723.32)" d="m8 0h104c0.52528 0 1.0455 0.051239 1.5607 0.15372 0.51518 0.10248 1.0154 0.25423 1.5007 0.45525s0.94632 0.44745 1.3831 0.73928 0.84087 0.62347 1.2123 0.9949c0.37143 0.37143 0.70307 0.77553 0.99491 1.2123 0.29183 0.43676 0.53825 0.89779 0.73927 1.3831 0.20101 0.4853 0.35277 0.98555 0.45526 1.5007 0.10247 0.51519 0.15371 1.0354 0.15372 1.5607v44c-1e-5 0.52529-0.0512 1.0455-0.15373 1.5607-0.10249 0.51519-0.25424 1.0154-0.45525 1.5007-0.20102 0.4853-0.44745 0.94633-0.73928 1.3831-0.29183 0.43676-0.62347 0.84086-0.9949 1.2123s-0.77554 0.70307-1.2123 0.9949c-0.43676 0.29183-0.89779 0.53825-1.3831 0.73928-0.4853 0.20102-0.98556 0.35277-1.5007 0.45525-0.51519 0.10248-1.0354 0.15372-1.5607 0.15372h-104c-0.52529-4e-6 -1.0455-0.051247-1.5607-0.15373-0.51519-0.10248-1.0154-0.25422-1.5007-0.45524-0.4853-0.20102-0.94633-0.44745-1.3831-0.73928-0.43676-0.29184-0.84086-0.62347-1.2123-0.9949-0.37143-0.37143-0.70307-0.77553-0.9949-1.2123-0.29183-0.43676-0.53826-0.8978-0.73928-1.3831s-0.35277-0.98555-0.45525-1.5007c-0.10248-0.51519-0.15372-1.0354-0.15372-1.5607v-44c0-0.52529 0.051239-1.0455 0.15372-1.5607 0.10248-0.51519 0.25423-1.0154 0.45525-1.5007 0.20102-0.4853 0.44745-0.94633 0.73928-1.3831 0.29183-0.43676 0.62347-0.84086 0.9949-1.2123 0.37143-0.37143 0.77553-0.70307 1.2123-0.9949 0.43676-0.29183 0.89779-0.53826 1.3831-0.73928 0.4853-0.20102 0.98555-0.35277 1.5007-0.45525 0.51519-0.10248 1.0354-0.15372 1.5607-0.15372z" clip-path="url(#ch)" fill="#fff" stroke="#1a1a1a" stroke-miterlimit="10" stroke-width="2"/>
 <text transform="matrix(1.5463 0 0 1.54 918.86 775.68)" xml:space="preserve"><tspan x="0" y="0" fill="#1a1a1a" font-family="'Open Sans'" font-size="14px" font-style="italic" font-weight="700">z</tspan></text>
 <path transform="matrix(1.5472 0 0 1.54 928.73 775.68)" d="m4.4542-5.8644v-0.93343h6.3523v0.93343zm0 2.7901v-0.93343h6.3523v0.93343z" fill="#1a1a1a" aria-label=" = "/>
 <text transform="matrix(1.548 0 0 1.54 952.36 775.68)" xml:space="preserve"><tspan x="0" y="0" fill="#1a1a1a" font-family="'Open Sans'" font-size="14px" font-style="italic" font-weight="700">x</tspan></text>
 <path transform="matrix(1.5402 0 0 1.54 633.33 723.32)" d="m8 0h104c0.52528 0 1.0455 0.051239 1.5607 0.15372 0.51518 0.10248 1.0154 0.25423 1.5007 0.45525s0.94632 0.44745 1.3831 0.73928 0.84087 0.62347 1.2123 0.9949c0.37143 0.37143 0.70307 0.77553 0.99491 1.2123 0.29183 0.43676 0.53825 0.89779 0.73927 1.3831 0.20101 0.4853 0.35277 0.98555 0.45526 1.5007 0.10247 0.51519 0.15371 1.0354 0.15372 1.5607v44c-1e-5 0.52529-0.0512 1.0455-0.15373 1.5607-0.10249 0.51519-0.25424 1.0154-0.45525 1.5007-0.20102 0.4853-0.44745 0.94633-0.73928 1.3831-0.29183 0.43676-0.62347 0.84086-0.9949 1.2123s-0.77554 0.70307-1.2123 0.9949c-0.43676 0.29183-0.89779 0.53825-1.3831 0.73928-0.4853 0.20102-0.98556 0.35277-1.5007 0.45525-0.51519 0.10248-1.0354 0.15372-1.5607 0.15372h-104c-0.52529-4e-6 -1.0455-0.051247-1.5607-0.15373-0.51519-0.10248-1.0154-0.25422-1.5007-0.45524-0.4853-0.20102-0.94633-0.44745-1.3831-0.73928-0.43676-0.29184-0.84086-0.62347-1.2123-0.9949-0.37143-0.37143-0.70307-0.77553-0.9949-1.2123-0.29183-0.43676-0.53826-0.8978-0.73928-1.3831s-0.35277-0.98555-0.45525-1.5007c-0.10248-0.51519-0.15372-1.0354-0.15372-1.5607v-44c0-0.52529 0.051239-1.0455 0.15372-1.5607 0.10248-0.51519 0.25423-1.0154 0.45525-1.5007 0.20102-0.4853 0.44745-0.94633 0.73928-1.3831 0.29183-0.43676 0.62347-0.84086 0.9949-1.2123 0.37143-0.37143 0.77553-0.70307 1.2123-0.9949 0.43676-0.29183 0.89779-0.53826 1.3831-0.73928 0.4853-0.20102 0.98555-0.35277 1.5007-0.45525 0.51519-0.10248 1.0354-0.15372 1.5607-0.15372z" clip-path="url(#cg)" fill="#fff" stroke="#1a1a1a" stroke-miterlimit="10" stroke-width="2"/>
 <text transform="matrix(1.5463 0 0 1.54 703.36 775.68)" xml:space="preserve"><tspan x="0" y="0" fill="#1a1a1a" font-family="'Open Sans'" font-size="14px" font-style="italic" font-weight="700">z</tspan></text>
 <path transform="matrix(1.5472 0 0 1.54 713.23 775.68)" d="m4.4539-5.8644v-0.93343h6.3523v0.93343zm0 2.7901v-0.93343h6.3523v0.93343z" fill="#1a1a1a" aria-label=" = "/>
 <g clip-path="url(#cb)">
  <text transform="matrix(1.5442 0 0 1.54 736.86 775.68)" xml:space="preserve"><tspan x="0" y="0" fill="#1a1a1a" font-family="'Open Sans'" font-size="14px" font-style="italic" font-weight="700">y</tspan></text>
  <g clip-path="url(#cc)">
   <g clip-path="url(#cd)">
    <g clip-path="url(#ce)">
     <path transform="matrix(1.5402 0 0 1.54 725.75 661.71)" d="m0 0v29.818" clip-path="url(#cf)" fill="none" stroke="#333" stroke-miterlimit="10" stroke-width="2"/>
    </g>
   </g>
  </g>
 </g>
 <path transform="matrix(0 1.54 -1.5402 0 725.75 723.31)" d="m-12.727-7.5455 12.727 7.5455-12.727 7.5455z" clip-path="url(#bz)" fill="#333"/>
 <g clip-path="url(#bu)">
  <text transform="matrix(1.5496 0 0 1.54 702.93 684.43)" xml:space="preserve"><tspan x="0" y="0" dx="0 -0.70003092" fill="#333333" font-family="'Noto Sans'" font-size="14px">True</tspan></text>
  <g clip-path="url(#bv)">
   <g clip-path="url(#bw)">
    <g clip-path="url(#bx)">
     <path transform="matrix(1.5402 0 0 1.54 941.38 569.32)" d="m0 0v89.818" clip-path="url(#by)" fill="none" stroke="#333" stroke-miterlimit="10" stroke-width="2"/>
    </g>
   </g>
  </g>
 </g>
 <path transform="matrix(0 1.54 -1.5402 0 941.38 723.32)" d="m-12.727-7.5455 12.727 7.5455-12.727 7.5455z" clip-path="url(#bt)" fill="#333"/>
 <text transform="matrix(1.5496 0 0 1.54 918.57 596.64)" xml:space="preserve"><tspan x="0" y="0" dx="0 -0.70003092" fill="#333333" font-family="'Noto Sans'" font-size="14px">True</tspan></text>
 <path transform="matrix(1.5402 0 0 1.54 1064.6 723.32)" d="m8 0h104c0.52528 0 1.0455 0.051239 1.5607 0.15372 0.51518 0.10248 1.0154 0.25423 1.5007 0.45525s0.94632 0.44745 1.3831 0.73928 0.84087 0.62347 1.2123 0.9949c0.37143 0.37143 0.70307 0.77553 0.99491 1.2123 0.29183 0.43676 0.53825 0.89779 0.73927 1.3831 0.20101 0.4853 0.35277 0.98555 0.45526 1.5007 0.10247 0.51519 0.15371 1.0354 0.15372 1.5607v44c-1e-5 0.52529-0.0512 1.0455-0.15373 1.5607-0.10249 0.51519-0.25424 1.0154-0.45525 1.5007-0.20102 0.4853-0.44745 0.94633-0.73928 1.3831-0.29183 0.43676-0.62347 0.84086-0.9949 1.2123s-0.77554 0.70307-1.2123 0.9949c-0.43676 0.29183-0.89779 0.53825-1.3831 0.73928-0.4853 0.20102-0.98556 0.35277-1.5007 0.45525-0.51519 0.10248-1.0354 0.15372-1.5607 0.15372h-104c-0.52529-4e-6 -1.0455-0.051247-1.5607-0.15373-0.51519-0.10248-1.0154-0.25422-1.5007-0.45524-0.4853-0.20102-0.94633-0.44745-1.3831-0.73928-0.43676-0.29184-0.84086-0.62347-1.2123-0.9949-0.37143-0.37143-0.70307-0.77553-0.9949-1.2123-0.29183-0.43676-0.53826-0.8978-0.73928-1.3831s-0.35277-0.98555-0.45525-1.5007c-0.10248-0.51519-0.15372-1.0354-0.15372-1.5607v-44c0-0.52529 0.051239-1.0455 0.15372-1.5607 0.10248-0.51519 0.25423-1.0154 0.45525-1.5007 0.20102-0.4853 0.44745-0.94633 0.73928-1.3831 0.29183-0.43676 0.62347-0.84086 0.9949-1.2123 0.37143-0.37143 0.77553-0.70307 1.2123-0.9949 0.43676-0.29183 0.89779-0.53826 1.3831-0.73928 0.4853-0.20102 0.98555-0.35277 1.5007-0.45525 0.51519-0.10248 1.0354-0.15372 1.5607-0.15372z" clip-path="url(#br)" fill="#fff" stroke="#1a1a1a" stroke-miterlimit="10" stroke-width="2"/>
 <text transform="matrix(1.5463 0 0 1.54 1123 775.68)" xml:space="preserve"><tspan x="0" y="0" fill="#1a1a1a" font-family="'Open Sans'" font-size="14px" font-style="italic" font-weight="700">z</tspan></text>
 <path transform="matrix(1.5472 0 0 1.54 1132.9 775.68)" d="m4.4555-5.8644v-0.93343h6.3523v0.93343zm0 2.7901v-0.93343h6.3523v0.93343z" fill="#1a1a1a" aria-label=" = "/>
 <text transform="matrix(1.5442 0 0 1.54 1156.5 775.68)" xml:space="preserve"><tspan x="0" y="0" fill="#1a1a1a" font-family="'Open Sans'" font-size="14px" font-style="italic" font-weight="700">y</tspan></text>
 <path transform="matrix(1.5483 0 0 1.54 1167.8 775.68)" d="m4.4915-10.633-0.29265 2.6988 2.7146-0.76095 0.18165 1.248-2.6036 0.20292 1.6954 2.2321-1.1807 0.6392-1.2009-2.4756-1.0899 2.4756-1.2009-0.6392 1.655-2.2321-2.5834-0.20292 0.20183-1.248 2.6742 0.76095-0.29265-2.6988z" fill="#1a1a1a" aria-label="*"/>
 <g clip-path="url(#bm)">
  <text transform="matrix(1.5442 0 0 1.54 1179.7 775.68)" xml:space="preserve"><tspan x="0" y="0" fill="#1a1a1a" font-family="'Open Sans'" font-size="14px" font-style="italic" font-weight="700">y</tspan></text>
  <g clip-path="url(#bn)">
   <g clip-path="url(#bo)">
    <g clip-path="url(#bp)">
     <path transform="matrix(1.5402 0 0 1.54 1157 476.91)" d="m0 0v149.82" clip-path="url(#bq)" fill="none" stroke="#333" stroke-miterlimit="10" stroke-width="2"/>
    </g>
   </g>
  </g>
 </g>
 <path transform="matrix(0 1.54 -1.5402 0 1157 723.31)" d="m-12.727-7.5455 12.727 7.5455-12.727 7.5455z" clip-path="url(#bl)" fill="#333"/>
 <g clip-path="url(#bf)">
  <text transform="matrix(1.5486 0 0 1.54 1131.2 508.98)" xml:space="preserve"><tspan x="0" y="0" fill="#333333" font-family="'Noto Sans'" font-size="14px">False</tspan></text>
  <g clip-path="url(#bh)">
   <g clip-path="url(#bi)">
    <g clip-path="url(#bj)">
     <path transform="matrix(1.5402 0 0 1.54 417.7 615.52)" d="m0 0h62c5.3333 0 8 2.6667 8 8v131.82" clip-path="url(#bk)" fill="none" stroke="#333" stroke-miterlimit="10" stroke-width="2"/>
    </g>
   </g>
  </g>
 </g>
 <path transform="matrix(0 1.54 -1.5402 0 525.52 846.52)" d="m-12.727-7.5455 12.727 7.5455-12.727 7.5455z" clip-path="url(#be)" fill="#333"/>
 <text transform="matrix(1.5486 0 0 1.54 433.47 621.68)" xml:space="preserve"><tspan x="0" y="0" fill="#333333" font-family="'Noto Sans'" font-size="14px">False</tspan></text>
 <path transform="matrix(1.5402 0 0 1.54 325.28 815.72)" d="m0 0v42c0 5.3333 2.6667 8 8 8h29.318" clip-path="url(#bd)" fill="none" stroke="#333" stroke-miterlimit="10" stroke-width="2"/>
 <path transform="matrix(1.5402 0 0 1.54 398.44 892.72)" d="m-12.727-7.5455 12.727 7.5455-12.727 7.5455z" clip-path="url(#bc)" fill="#333"/>
 <path transform="matrix(1.5402 0 0 1.54 109.65 815.72)" d="m0 0v42c0 5.3333 2.6667 8 8 8h169.32" clip-path="url(#bb)" fill="none" stroke="#333" stroke-miterlimit="10" stroke-width="2"/>
 <path transform="matrix(1.5402 0 0 1.54 398.45 892.72)" d="m-12.727-7.5455 12.727 7.5455-12.727 7.5455z" clip-path="url(#az)" fill="#333"/>
 <path transform="matrix(1.5402 0 0 1.54 652.59 815.72)" d="m187.5 0v42c0 5.3333-2.6667 8-8 8h-169.32" clip-path="url(#ay)" fill="none" stroke="#333" stroke-miterlimit="10" stroke-width="2"/>
 <path transform="matrix(-1.5402 0 0 -1.54 652.59 892.72)" d="m-12.727-7.5455 12.727 7.5455-12.727 7.5455z" clip-path="url(#ax)" fill="#333"/>
 <path transform="matrix(1.5402 0 0 1.54 652.59 815.72)" d="m327.5 0v42c0 5.3333-2.6667 8-8 8h-309.32" clip-path="url(#aw)" fill="none" stroke="#333" stroke-miterlimit="10" stroke-width="2"/>
 <path transform="matrix(-1.5402 0 0 -1.54 652.59 892.72)" d="m-12.727-7.5455 12.727 7.5455-12.727 7.5455z" clip-path="url(#av)" fill="#333"/>
 <path transform="matrix(1.5402 0 0 1.54 525.52 615.52)" d="m70 0h-62c-5.3333 0-8 2.6667-8 8v131.82" clip-path="url(#at)" fill="none" stroke="#333" stroke-miterlimit="10" stroke-width="2"/>
 <path transform="matrix(0 1.54 -1.5402 0 525.52 846.52)" d="m-12.727-7.5455 12.727 7.5455-12.727 7.5455z" clip-path="url(#as)" fill="#333"/>
 <path transform="matrix(1.5402 0 0 1.54 652.59 815.72)" d="m47.5 0v42c0 5.3333-2.6667 8-8 8h-29.318" clip-path="url(#ar)" fill="none" stroke="#333" stroke-miterlimit="10" stroke-width="2"/>
 <path transform="matrix(-1.5402 0 0 -1.54 652.59 892.72)" d="m-12.727-7.5455 12.727 7.5455-12.727 7.5455z" clip-path="url(#aq)" fill="#333"/>
</svg>
